<svg width="367" height="367" viewBox="0 0 367 367" fill="none" xmlns="http://www.w3.org/2000/svg">
<path d="M43.5999 282.641C43.9424 282.436 44.3344 282.327 44.7339 282.327C45.1334 282.327 45.5255 282.436 45.8679 282.641L46.4478 282.979L47.0497 283.28C47.4139 283.443 47.7253 283.705 47.9484 284.035C48.1716 284.366 48.2976 284.753 48.3122 285.152L48.4002 287.948L57.4945 287.662L57.4064 284.873C57.4013 284.473 57.5052 284.079 57.707 283.734C57.9087 283.389 58.2006 283.105 58.5515 282.913C58.9487 282.69 59.3334 282.444 59.7038 282.179C60.0312 281.953 60.4135 281.821 60.8103 281.795C61.207 281.769 61.6034 281.851 61.9572 282.032L64.4161 283.353L68.7174 275.331L66.2585 274.017C65.9104 273.823 65.6214 273.538 65.4223 273.193C65.2233 272.848 65.1216 272.455 65.1281 272.057C65.1429 271.604 65.1282 271.15 65.0841 270.699C65.0551 270.31 65.1303 269.92 65.3018 269.569C65.4734 269.218 65.7351 268.919 66.0603 268.703L68.4311 267.235L63.6381 259.506L61.2526 260.974C60.9132 261.184 60.5217 261.296 60.1222 261.296C59.7228 261.296 59.3312 261.184 58.9919 260.974C58.801 260.856 58.6102 260.746 58.412 260.643L57.8101 260.342C57.4463 260.177 57.1356 259.914 56.9127 259.582C56.6898 259.25 56.5634 258.863 56.5476 258.463L56.5183 255.652L47.4314 255.931L47.5194 258.72C47.5245 259.12 47.4206 259.514 47.2189 259.859C47.0171 260.204 46.7252 260.488 46.3744 260.68C45.9772 260.904 45.5924 261.149 45.222 261.414C44.8962 261.647 44.5119 261.783 44.1126 261.809C43.7132 261.835 43.3145 261.749 42.9613 261.561L40.5097 260.247L36.2085 268.27L38.6601 269.584C39.0081 269.777 39.2971 270.062 39.4962 270.407C39.6952 270.752 39.7969 271.145 39.7904 271.543C39.7793 271.996 39.794 272.45 39.8345 272.901C39.8685 273.301 39.7928 273.702 39.6156 274.061C39.4384 274.421 39.1664 274.725 38.8289 274.942L36.4581 276.41L41.2584 284.139L43.5999 282.641ZM45.8753 268.284C46.5713 266.986 47.6369 265.922 48.9373 265.229C50.2376 264.536 51.7143 264.244 53.1806 264.39C54.6469 264.536 56.0369 265.114 57.1748 266.05C58.3128 266.986 59.1476 268.239 59.5737 269.65C59.9997 271.06 59.9979 272.565 59.5684 273.975C59.1389 275.385 58.3011 276.635 57.1609 277.568C56.0207 278.502 54.6293 279.076 53.1626 279.219C51.696 279.361 50.22 279.066 48.9214 278.37C47.1816 277.435 45.8838 275.848 45.3128 273.957C44.7417 272.066 44.944 270.026 45.8753 268.284Z" fill="#EBEBEB"/>
<path d="M69.3336 250.294C69.4772 250.053 69.6851 249.857 69.934 249.727C70.1829 249.597 70.463 249.54 70.7429 249.56H71.6824C71.9611 249.541 72.2396 249.599 72.487 249.729C72.7345 249.859 72.9412 250.054 73.0843 250.294L74.0605 251.99L79.5802 248.804L78.604 247.108C78.4657 246.865 78.3973 246.588 78.4064 246.308C78.4154 246.029 78.5016 245.757 78.6554 245.523C78.8327 245.26 78.9921 244.985 79.1325 244.701C79.2591 244.451 79.4521 244.241 79.6903 244.093C79.9286 243.945 80.2028 243.866 80.483 243.864H82.4355V237.493H80.483C80.2028 237.491 79.9286 237.412 79.6903 237.264C79.4521 237.117 79.2591 236.906 79.1325 236.656C78.9921 236.372 78.8327 236.097 78.6554 235.834C78.5017 235.599 78.4157 235.326 78.4066 235.045C78.3976 234.764 78.4658 234.486 78.604 234.241L79.5802 232.553L74.0605 229.368L73.077 231.063C72.9345 231.304 72.7279 231.5 72.4803 231.629C72.2327 231.759 71.9538 231.817 71.675 231.797H71.2053H70.7429C70.463 231.818 70.1829 231.76 69.934 231.63C69.6851 231.501 69.4772 231.304 69.3336 231.063L68.3574 229.368L62.8377 232.553L63.8139 234.241C63.9522 234.485 64.0206 234.762 64.0115 235.041C64.0025 235.321 63.9163 235.593 63.7625 235.827C63.5851 236.092 63.4257 236.369 63.2854 236.656C63.1588 236.906 62.9658 237.117 62.7276 237.264C62.4893 237.412 62.2151 237.491 61.9349 237.493H59.9824V243.864H61.9349C62.2151 243.866 62.4893 243.945 62.7276 244.093C62.9658 244.241 63.1588 244.451 63.2854 244.701C63.4257 244.988 63.5851 245.265 63.7625 245.53C63.9163 245.764 64.0025 246.036 64.0115 246.316C64.0206 246.596 63.9522 246.872 63.8139 247.116L62.8377 248.804L68.3574 251.99L69.3336 250.294ZM65.9865 240.657C65.9894 239.625 66.2982 238.617 66.8737 237.76C67.4492 236.904 68.2657 236.237 69.22 235.845C70.1743 235.452 71.2235 235.352 72.2351 235.555C73.2466 235.759 74.1751 236.258 74.9032 236.989C75.6313 237.72 76.1263 238.651 76.3257 239.663C76.525 240.675 76.4198 241.724 76.0232 242.677C75.6267 243.629 74.9566 244.443 74.0978 245.015C73.2389 245.587 72.2298 245.891 71.1979 245.89C69.8132 245.886 68.4866 245.333 67.5094 244.352C66.5323 243.37 65.9846 242.041 65.9865 240.657Z" fill="#EBEBEB"/>
<path d="M309.887 55.1014C310.128 55.2438 310.324 55.4504 310.454 55.6981C310.583 55.9457 310.641 56.2245 310.621 56.5033C310.621 56.6648 310.621 56.8189 310.621 56.9731C310.621 57.1272 310.621 57.2887 310.621 57.4502C310.641 57.7288 310.582 58.0074 310.452 58.2548C310.323 58.5023 310.127 58.709 309.887 58.8521L308.192 59.8283L311.385 65.326L313.073 64.3498C313.317 64.21 313.595 64.1408 313.877 64.1499C314.158 64.159 314.431 64.2459 314.666 64.4011C314.93 64.5758 315.205 64.7351 315.488 64.8783C315.746 65.0012 315.964 65.1946 316.118 65.4361C316.271 65.6776 316.353 65.9575 316.354 66.2435V68.1959H322.725V66.2435C322.728 65.9643 322.807 65.6913 322.955 65.4543C323.102 65.2174 323.312 65.0257 323.562 64.9003C323.845 64.7571 324.119 64.5978 324.384 64.4232C324.619 64.268 324.892 64.181 325.173 64.1719C325.454 64.1628 325.732 64.232 325.977 64.3718L327.665 65.348L330.85 59.8283L329.148 58.8448C328.908 58.7017 328.712 58.495 328.583 58.2475C328.453 58 328.394 57.7215 328.414 57.4428C328.414 57.2887 328.414 57.1346 328.414 56.9731C328.414 56.8116 328.414 56.6648 328.414 56.5033C328.394 56.2245 328.452 55.9457 328.581 55.6981C328.711 55.4504 328.907 55.2438 329.148 55.1014L330.843 54.1252L327.658 48.6055L325.969 49.5817C325.726 49.7206 325.448 49.7886 325.168 49.7783C324.888 49.7679 324.617 49.6795 324.384 49.523C324.12 49.3542 323.841 49.1927 323.555 49.0459C323.302 48.9248 323.087 48.7357 322.936 48.4998C322.784 48.2638 322.701 47.9904 322.696 47.71V45.7502H316.354V47.71C316.352 47.9893 316.273 48.2627 316.125 48.4998C315.978 48.7369 315.767 48.9285 315.517 49.0532C315.231 49.2 314.952 49.3615 314.688 49.5303C314.455 49.6868 314.184 49.7752 313.903 49.7856C313.623 49.796 313.346 49.7279 313.102 49.589L311.414 48.6128L308.229 54.1325L309.887 55.1014ZM319.51 51.7543C320.542 51.7543 321.551 52.0604 322.41 52.6338C323.268 53.2073 323.937 54.0223 324.332 54.9759C324.727 55.9295 324.83 56.9789 324.629 57.9912C324.427 59.0035 323.93 59.9334 323.2 60.6633C322.471 61.3931 321.541 61.8902 320.528 62.0915C319.516 62.2929 318.467 62.1896 317.513 61.7946C316.559 61.3996 315.744 60.7307 315.171 59.8724C314.598 59.0142 314.291 58.0052 314.291 56.9731C314.293 55.5896 314.844 54.2633 315.822 53.285C316.8 52.3067 318.127 51.7563 319.51 51.7543Z" fill="#EBEBEB"/>
<path d="M298.738 98.5395C298 103.51 295.85 108.165 292.544 111.949C289.238 115.734 284.914 118.49 280.088 119.889C275.261 121.288 270.134 121.272 265.316 119.842C260.499 118.412 256.193 115.629 252.911 111.824C249.629 108.018 247.508 103.35 246.802 98.3746C246.096 93.3992 246.833 88.3255 248.926 83.7567C251.019 79.188 254.38 75.3164 258.609 72.6021C262.839 69.8879 267.758 68.4452 272.784 68.4455V94.686L298.738 98.5395Z" fill="#EBEBEB"/>
<path d="M304.324 89.3498C304.326 90.6373 304.23 91.923 304.038 93.196L278.091 89.3498V63.124C281.537 63.1211 284.949 63.7977 288.133 65.115C291.317 66.4323 294.21 68.3645 296.647 70.8011C299.083 73.2376 301.016 76.1307 302.333 79.3147C303.65 82.4988 304.327 85.9114 304.324 89.3572V89.3498Z" fill="#DBDBDB"/>
<path d="M54.4115 141.662V163.293L40.3701 179.742C37.0071 176.87 34.6052 173.036 33.4881 168.757C32.371 164.478 32.5923 159.959 34.1224 155.809C35.6524 151.66 38.4176 148.079 42.0453 145.55C45.6731 143.02 49.989 141.663 54.4115 141.662Z" fill="#EBEBEB"/>
<path d="M80.4463 165.495C80.4453 169.627 79.2607 173.673 77.0324 177.153C74.8042 180.634 71.6257 183.403 67.8731 185.133C64.1204 186.863 59.9506 187.483 55.857 186.918C51.7634 186.352 47.9173 184.626 44.7739 181.944L58.808 165.495V143.864C61.6492 143.862 64.4628 144.42 67.0881 145.507C69.7134 146.593 72.0987 148.186 74.1077 150.195C76.1167 152.204 77.71 154.59 78.7964 157.215C79.8827 159.84 80.4409 162.654 80.439 165.495H80.4463Z" fill="#EBEBEB"/>
<path d="M80.4463 165.495C80.4453 169.627 79.2607 173.673 77.0324 177.153C74.8042 180.634 71.6257 183.403 67.8731 185.133C64.1204 186.863 59.9506 187.483 55.857 186.918C51.7634 186.352 47.9173 184.626 44.7739 181.944L58.808 165.495V143.864C61.6492 143.862 64.4628 144.42 67.0881 145.507C69.7134 146.593 72.0987 148.186 74.1077 150.195C76.1167 152.204 77.71 154.59 78.7964 157.215C79.8827 159.84 80.4409 162.654 80.439 165.495H80.4463Z" fill="#DBDBDB"/>
<path d="M45.1486 124.846H44.4146V152.745H45.1486V124.846Z" fill="#C7C7C7"/>
<path d="M44.774 125.213C44.3135 125.213 43.8634 125.076 43.4806 124.82C43.0978 124.564 42.7996 124.201 42.6237 123.775C42.4478 123.349 42.4021 122.881 42.4925 122.43C42.5829 121.978 42.8052 121.564 43.1314 121.238C43.4575 120.913 43.8728 120.692 44.3246 120.603C44.7765 120.514 45.2445 120.562 45.6696 120.739C46.0946 120.916 46.4575 121.215 46.7123 121.599C46.967 121.983 47.1023 122.433 47.1008 122.894C47.0989 123.509 46.8529 124.099 46.4167 124.534C45.9806 124.969 45.3899 125.213 44.774 125.213ZM44.774 121.301C44.459 121.301 44.1511 121.394 43.8891 121.569C43.6272 121.744 43.4231 121.993 43.3025 122.284C43.1819 122.575 43.1504 122.895 43.2119 123.204C43.2733 123.513 43.425 123.797 43.6478 124.02C43.8705 124.243 44.1543 124.394 44.4633 124.456C44.7723 124.517 45.0925 124.486 45.3836 124.365C45.6746 124.245 45.9234 124.04 46.0984 123.779C46.2734 123.517 46.3668 123.209 46.3668 122.894C46.3668 122.471 46.199 122.066 45.9003 121.767C45.6016 121.469 45.1965 121.301 44.774 121.301Z" fill="#C7C7C7"/>
<path d="M72.3874 120.934H50.7124V121.91H72.3874V120.934Z" fill="#C7C7C7"/>
<path d="M62.9775 122.894H50.7124V123.87H62.9775V122.894Z" fill="#C7C7C7"/>
<path d="M303.487 104.008H275.588V104.742H303.487V104.008Z" fill="#C7C7C7"/>
<path d="M305.447 106.702C304.986 106.703 304.536 106.568 304.152 106.313C303.769 106.058 303.469 105.695 303.292 105.27C303.115 104.845 303.068 104.377 303.157 103.925C303.246 103.474 303.467 103.058 303.792 102.732C304.117 102.406 304.531 102.184 304.983 102.093C305.434 102.003 305.903 102.049 306.328 102.224C306.754 102.4 307.118 102.699 307.374 103.081C307.63 103.464 307.766 103.914 307.766 104.375C307.767 104.68 307.708 104.982 307.592 105.265C307.476 105.547 307.305 105.803 307.09 106.02C306.874 106.236 306.618 106.407 306.336 106.524C306.054 106.641 305.752 106.702 305.447 106.702ZM305.447 102.789C305.131 102.788 304.822 102.88 304.559 103.055C304.296 103.229 304.091 103.478 303.969 103.769C303.848 104.061 303.816 104.381 303.877 104.691C303.938 105.001 304.09 105.285 304.313 105.508C304.537 105.732 304.821 105.883 305.131 105.945C305.44 106.006 305.761 105.974 306.053 105.852C306.344 105.731 306.593 105.526 306.767 105.262C306.941 104.999 307.034 104.69 307.032 104.375C307.036 104.164 306.998 103.955 306.92 103.759C306.842 103.563 306.726 103.385 306.579 103.235C306.431 103.084 306.255 102.965 306.061 102.883C305.866 102.802 305.658 102.76 305.447 102.76V102.789Z" fill="#C7C7C7"/>
<path d="M334.212 102.907H312.537V103.883H334.212V102.907Z" fill="#C7C7C7"/>
<path d="M324.802 104.867H312.537V105.843H324.802V104.867Z" fill="#C7C7C7"/>
<path d="M154.705 96.888H53.8389V31.239H154.705V96.888ZM54.5729 96.154H153.971V31.973H54.5729V96.154Z" fill="#EBEBEB"/>
<path d="M154.705 40.6049H53.8389V31.239H154.705V40.6049ZM54.5729 39.8709H153.971V31.973H54.5729V39.8709Z" fill="#EBEBEB"/>
<path d="M62.3019 35.966C62.3019 36.4015 62.1728 36.8273 61.9308 37.1894C61.6889 37.5515 61.345 37.8337 60.9426 38.0004C60.5403 38.1671 60.0975 38.2107 59.6704 38.1257C59.2432 38.0407 58.8509 37.831 58.5429 37.5231C58.2349 37.2151 58.0252 36.8227 57.9403 36.3956C57.8553 35.9684 57.8989 35.5257 58.0656 35.1233C58.2322 34.721 58.5145 34.3771 58.8766 34.1351C59.2387 33.8932 59.6644 33.764 60.0999 33.764C60.684 33.764 61.244 33.996 61.657 34.409C62.07 34.8219 62.3019 35.382 62.3019 35.966Z" fill="#C7C7C7"/>
<path d="M71.1979 35.966C71.1979 36.4015 71.0688 36.8273 70.8268 37.1894C70.5849 37.5515 70.241 37.8337 69.8386 38.0004C69.4362 38.1671 68.9935 38.2107 68.5664 38.1257C68.1392 38.0407 67.7468 37.831 67.4389 37.5231C67.1309 37.2151 66.9212 36.8227 66.8363 36.3956C66.7513 35.9684 66.7949 35.5257 66.9616 35.1233C67.1282 34.721 67.4105 34.3771 67.7726 34.1351C68.1347 33.8932 68.5604 33.764 68.9959 33.764C69.58 33.764 70.14 33.996 70.553 34.409C70.9659 34.8219 71.1979 35.382 71.1979 35.966Z" fill="#EBEBEB"/>
<path d="M80.006 35.966C80.006 36.4015 79.8769 36.8273 79.6349 37.1894C79.393 37.5515 79.0491 37.8337 78.6467 38.0004C78.2444 38.1671 77.8016 38.2107 77.3745 38.1257C76.9473 38.0407 76.555 37.831 76.247 37.5231C75.939 37.2151 75.7293 36.8227 75.6444 36.3956C75.5594 35.9684 75.603 35.5257 75.7697 35.1233C75.9363 34.721 76.2186 34.3771 76.5807 34.1351C76.9428 33.8932 77.3685 33.764 77.804 33.764C78.3881 33.764 78.9481 33.996 79.3611 34.409C79.7741 34.8219 80.006 35.382 80.006 35.966Z" fill="#FFCC41"/>
<path d="M267.873 342.015C310.945 342.015 345.861 335.952 345.861 328.472C345.861 320.993 310.945 314.93 267.873 314.93C224.802 314.93 189.886 320.993 189.886 328.472C189.886 335.952 224.802 342.015 267.873 342.015Z" fill="#EBEBEB"/>
<path d="M21.8071 310.834L62.2285 310.658L102.65 310.592L183.5 310.467L264.35 310.592L304.771 310.651L345.193 310.834L304.771 311.01L264.35 311.077L183.5 311.201L102.65 311.077L62.2285 311.01L21.8071 310.834Z" fill="#263238"/>
<path d="M293.196 51.3506H73.811V297.064H293.196V51.3506Z" fill="#37474F"/>
<path d="M289.945 55.2408H77.6206V211.906H289.945V55.2408Z" fill="#263238"/>
<path d="M227.452 69.3997H140.106V71.3374H227.452V69.3997Z" fill="#455A64"/>
<path d="M212.523 73.4367H155.043V75.3745H212.523V73.4367Z" fill="#455A64"/>
<path d="M213.792 183.86C211.661 185.032 209.289 185.701 206.859 185.816C204.428 185.931 202.004 185.489 199.771 184.522C197.538 183.556 195.556 182.092 193.976 180.242C192.396 178.392 191.261 176.205 190.656 173.848C190.052 171.491 189.994 169.028 190.488 166.646C190.982 164.263 192.015 162.026 193.506 160.104C194.998 158.182 196.91 156.627 199.095 155.558C201.281 154.488 203.682 153.933 206.115 153.934V169.877L213.792 183.86Z" fill="white"/>
<path d="M215.569 157.076L206.115 169.906V153.934C209.522 153.935 212.838 155.037 215.569 157.076Z" fill="#FFCC41"/>
<path d="M222.057 169.877C222.065 173.886 220.554 177.749 217.829 180.689L206.085 169.877L215.568 157.076C217.578 158.552 219.212 160.479 220.339 162.703C221.466 164.926 222.055 167.384 222.057 169.877Z" fill="#A6A6A6"/>
<path d="M223.562 188.087C222.398 189.355 221.037 190.425 219.532 191.258L211.854 177.312L223.562 188.087Z" fill="#455A64"/>
<path d="M163.073 154.544L158.669 169.877V185.827C154.499 185.737 150.53 184.018 147.612 181.037C144.695 178.056 143.061 174.052 143.061 169.881C143.061 165.71 144.695 161.705 147.612 158.724C150.53 155.743 154.499 154.024 158.669 153.934C160.158 153.934 161.64 154.139 163.073 154.544Z" fill="#A6A6A6"/>
<path d="M168.137 182.722C165.406 184.743 162.096 185.832 158.698 185.827V169.877L168.137 182.722Z" fill="white"/>
<path d="M174.641 169.877C174.643 172.379 174.056 174.846 172.926 177.077C171.796 179.309 170.155 181.243 168.137 182.722L158.698 169.877L171.096 159.858C173.394 162.691 174.646 166.229 174.641 169.877Z" fill="#455A64"/>
<path d="M174.64 154.691L162.214 164.717L166.618 149.376C169.774 150.282 172.576 152.137 174.64 154.691Z" fill="#FFCC41"/>
<path d="M111.274 153.934V169.877L100.558 181.665C98.179 179.499 96.5112 176.664 95.7734 173.533C95.0357 170.401 95.2627 167.12 96.4244 164.12C97.5861 161.12 99.6283 158.542 102.283 156.724C104.937 154.906 108.079 153.933 111.296 153.934H111.274Z" fill="#455A64"/>
<path d="M122.695 158.742L111.274 169.877V153.934C113.403 153.932 115.51 154.356 117.472 155.182C119.434 156.007 121.21 157.218 122.695 158.742Z" fill="#FFCC41"/>
<path d="M127.224 169.877C127.226 172.244 126.7 174.582 125.684 176.72C124.668 178.859 123.188 180.743 121.352 182.238L111.274 169.877L122.695 158.742C125.601 161.72 127.226 165.716 127.224 169.877Z" fill="#A6A6A6"/>
<path d="M121.352 186.436C118.389 188.849 114.657 190.118 110.837 190.012C107.016 189.906 103.361 188.431 100.536 185.856L111.275 174.075L121.352 186.436Z" fill="white"/>
<path d="M253.538 153.934V185.827C249.368 185.737 245.399 184.018 242.482 181.037C239.564 178.056 237.931 174.052 237.931 169.881C237.931 165.71 239.564 161.705 242.482 158.724C245.399 155.743 249.368 154.024 253.538 153.934Z" fill="#FFCC41"/>
<path d="M257.56 154.448L253.538 169.862V153.934C254.895 153.936 256.247 154.109 257.56 154.448Z" fill="#263238"/>
<path d="M272.226 168.959C272.231 170.969 271.858 172.961 271.125 174.831L256.283 168.959L260.313 153.545C263.724 154.435 266.743 156.431 268.899 159.22C271.055 162.009 272.225 165.434 272.226 168.959Z" fill="#455A64"/>
<path d="M268.372 175.727C267.198 178.704 265.155 181.259 262.509 183.06C259.864 184.861 256.738 185.825 253.538 185.827V169.877L268.372 175.727Z" fill="#A6A6A6"/>
<path d="M122.541 195.207H103.927V196.998H122.541V195.207Z" fill="#455A64"/>
<path d="M116.28 198.936H103.927V200.727H116.28V198.936Z" fill="#455A64"/>
<path d="M100.903 195.178H95.332V200.749H100.903V195.178Z" fill="#455A64"/>
<path d="M169.958 195.207H151.343V196.998H169.958V195.207Z" fill="#455A64"/>
<path d="M163.696 198.936H151.343V200.727H163.696V198.936Z" fill="#455A64"/>
<path d="M148.327 195.178H142.756V200.749H148.327V195.178Z" fill="#A6A6A6"/>
<path d="M217.381 195.207H198.767V196.998H217.381V195.207Z" fill="#455A64"/>
<path d="M211.12 198.936H198.767V200.727H211.12V198.936Z" fill="#455A64"/>
<path d="M195.743 195.178H190.172V200.749H195.743V195.178Z" fill="white"/>
<path d="M264.798 195.207H246.184V196.998H264.798V195.207Z" fill="#455A64"/>
<path d="M258.537 198.936H246.184V200.727H258.537V198.936Z" fill="#455A64"/>
<path d="M243.167 195.178H237.596V200.749H243.167V195.178Z" fill="#FFCC41"/>
<path d="M95.332 85.0559L139.556 84.9458C154.302 84.9458 169.04 84.9458 183.779 85.0559C169.04 85.1587 154.302 85.1293 139.556 85.1734L95.332 85.0559Z" fill="#455A64"/>
<path d="M95.332 88.5718L139.556 88.4617C154.302 88.4617 169.04 88.4617 183.779 88.5718C169.04 88.6745 154.302 88.6452 139.556 88.6892L95.332 88.5718Z" fill="#455A64"/>
<path d="M95.332 92.0877L139.556 91.9702C154.302 92.0143 169.04 91.9702 183.779 92.0877C169.04 92.1904 154.302 92.1611 139.556 92.2051L95.332 92.0877Z" fill="#455A64"/>
<path d="M95.332 95.6035L139.556 95.4861C154.302 95.5301 169.04 95.4861 183.779 95.6035C169.04 95.6989 154.302 95.6769 139.556 95.7136L95.332 95.6035Z" fill="#455A64"/>
<path d="M95.332 99.09L139.556 98.9725C154.302 99.0166 169.04 98.9725 183.779 99.09C169.04 99.1854 154.302 99.1634 139.556 99.2001L95.332 99.09Z" fill="#455A64"/>
<path d="M95.332 102.635L139.556 102.518C154.302 102.562 169.04 102.518 183.779 102.635C169.04 102.731 154.302 102.709 139.556 102.745L95.332 102.635Z" fill="#455A64"/>
<path d="M95.332 106.144L139.556 106.034C154.302 106.034 169.04 106.034 183.779 106.144C169.04 106.246 154.302 106.224 139.556 106.261L95.332 106.144Z" fill="#455A64"/>
<path d="M95.332 109.66L139.556 109.549C154.302 109.586 169.04 109.549 183.779 109.66C169.04 109.762 154.302 109.733 139.556 109.777L95.332 109.66Z" fill="#455A64"/>
<path d="M95.332 113.175L139.556 113.065C154.302 113.102 169.04 113.065 183.779 113.175C169.04 113.278 154.302 113.249 139.556 113.293L95.332 113.175Z" fill="#455A64"/>
<path d="M95.332 116.706L139.556 116.589C154.302 116.633 169.04 116.589 183.779 116.706C169.04 116.801 154.302 116.779 139.556 116.823L95.332 116.706Z" fill="#455A64"/>
<path d="M95.332 120.207L139.556 120.09C154.302 120.134 169.04 120.09 183.779 120.207C169.04 120.303 154.302 120.281 139.556 120.317L95.332 120.207Z" fill="#455A64"/>
<path d="M95.332 123.723L139.556 123.606C154.302 123.65 169.04 123.606 183.779 123.723C169.04 123.818 154.302 123.796 139.556 123.833L95.332 123.723Z" fill="#455A64"/>
<path d="M95.332 127.239L139.556 127.121C154.302 127.158 169.04 127.121 183.779 127.239C169.04 127.334 154.302 127.312 139.556 127.349L95.332 127.239Z" fill="#455A64"/>
<path d="M95.332 130.747L139.556 130.637C154.302 130.674 169.04 130.637 183.779 130.747C169.04 130.85 154.302 130.821 139.556 130.865L95.332 130.747Z" fill="#455A64"/>
<path d="M95.332 134.263L139.556 134.153C154.302 134.153 169.04 134.153 183.779 134.263C169.04 134.366 154.302 134.337 139.556 134.381L95.332 134.263Z" fill="#455A64"/>
<path d="M111.392 109.66H104.683V138.359H111.392V109.66Z" fill="#FFCC41"/>
<path d="M123.841 97.5192H117.132V138.359H123.841V97.5192Z" fill="white"/>
<path d="M136.282 106.269H129.573V138.359H136.282V106.269Z" fill="#A6A6A6"/>
<path d="M148.723 95.6035H142.014V138.366H148.723V95.6035Z" fill="#FFCC41"/>
<path d="M161.164 101.336H154.456V138.359H161.164V101.336Z" fill="white"/>
<path d="M173.606 122.314H166.897V138.359H173.606V122.314Z" fill="#A6A6A6"/>
<path d="M97.7319 82.5897L97.9154 96.5357L98.0402 110.482C98.1283 119.781 98.1503 129.074 98.165 138.374L97.7319 137.955H119.245L140.759 138.007L162.265 138.146L183.779 138.396L162.265 138.653L140.759 138.792L119.245 138.843H97.7319H97.2988V138.418C97.2988 129.125 97.3355 119.833 97.4236 110.526L97.5484 96.5797L97.7319 82.5897Z" fill="#455A64"/>
<path d="M111.392 141.31H104.683V141.904H111.392V141.31Z" fill="#455A64"/>
<path d="M123.841 141.31H117.132V141.904H123.841V141.31Z" fill="#455A64"/>
<path d="M136.282 141.31H129.573V141.904H136.282V141.31Z" fill="#455A64"/>
<path d="M148.723 141.31H142.014V141.904H148.723V141.31Z" fill="#455A64"/>
<path d="M161.164 141.31H154.456V141.904H161.164V141.31Z" fill="#455A64"/>
<path d="M173.606 141.31H166.897V141.904H173.606V141.31Z" fill="#455A64"/>
<path d="M233.412 106.547C233.41 110.176 232.34 113.724 230.337 116.749C228.334 119.774 225.485 122.143 222.145 123.562L214.922 106.547H233.412Z" fill="#FFCC41"/>
<path d="M212.567 105.278L219.789 122.299C219.789 122.299 219.789 122.299 219.752 122.299C219.187 122.527 218.622 122.739 218.057 122.916C215.294 123.776 212.368 123.975 209.514 123.497C206.66 123.018 203.958 121.876 201.627 120.162C199.295 118.447 197.399 116.209 196.092 113.628C194.784 111.046 194.102 108.193 194.099 105.3C194.103 103.439 194.383 101.588 194.929 99.8093C195.816 96.9511 197.386 94.3519 199.502 92.2356C201.619 90.1193 204.218 88.5495 207.076 87.6616C210.662 86.5496 214.5 86.5496 218.086 87.6616C221.849 88.8251 225.141 91.1631 227.479 94.3332C229.817 97.5032 231.078 101.339 231.078 105.278H212.567Z" fill="#FFCC41"/>
<path d="M212.567 105.278L219.789 122.299C219.789 122.299 219.789 122.299 219.752 122.299C219.187 122.527 218.622 122.739 218.057 122.916C215.294 123.776 212.368 123.975 209.514 123.497C206.66 123.018 203.958 121.876 201.627 120.162C199.295 118.447 197.399 116.209 196.092 113.628C194.784 111.046 194.102 108.193 194.099 105.3C194.11 100.886 195.7 96.6216 198.582 93.2784C201.464 89.9352 205.447 87.7337 209.811 87.0722C214.175 86.4106 218.632 87.3327 222.375 89.6716C226.118 92.0105 228.901 95.6117 230.219 99.824C230.769 101.602 231.048 103.453 231.049 105.314L212.567 105.278Z" fill="#A6A6A6"/>
<path d="M212.574 105.285L200.529 119.29C198.181 117.27 196.377 114.693 195.285 111.795C194.194 108.897 193.848 105.77 194.28 102.703C194.712 99.6366 195.908 96.7276 197.759 94.2439C199.609 91.7602 202.054 89.7816 204.869 88.4899C207.684 87.1982 210.778 86.6349 213.868 86.8518C216.957 87.0687 219.943 88.0589 222.55 89.7312C225.156 91.4036 227.301 93.7045 228.786 96.4223C230.271 99.1402 231.049 102.188 231.049 105.285H212.574Z" fill="#455A64"/>
<path d="M242.976 129.764H229.015L211.729 112.478L211.979 112.229L229.162 129.412H242.976V129.764Z" fill="#263238"/>
<path d="M212.824 111.384H210.878V113.33H212.824V111.384Z" fill="#263238"/>
<path d="M242.976 116.39H227.247L219.774 108.926L220.024 108.676L227.393 116.038H242.976V116.39Z" fill="#263238"/>
<path d="M220.875 107.825H218.93V109.77H220.875V107.825Z" fill="#263238"/>
<path d="M242.976 103.156H219.187V103.516H242.976V103.156Z" fill="#263238"/>
<path d="M219.907 102.364H217.961V104.309H219.907V102.364Z" fill="#263238"/>
<path d="M265.664 101.387H248.386V102.995H265.664V101.387Z" fill="#455A64"/>
<path d="M270.809 104.742H248.386V106.349H270.809V104.742Z" fill="#455A64"/>
<path d="M260.372 108.096H248.386V109.704H260.372V108.096Z" fill="#455A64"/>
<path d="M244.921 101.387H241.023V105.285H244.921V101.387Z" fill="#455A64"/>
<path d="M267.771 114.372H248.386V115.979H267.771V114.372Z" fill="#455A64"/>
<path d="M264.548 117.734H248.386V119.341H264.548V117.734Z" fill="#455A64"/>
<path d="M270.809 121.088H248.386V122.695H270.809V121.088Z" fill="#455A64"/>
<path d="M244.921 114.372H241.023V118.269H244.921V114.372Z" fill="#FFCC41"/>
<path d="M267.771 127.364H248.386V128.971H267.771V127.364Z" fill="#455A64"/>
<path d="M264.548 130.718H248.386V132.326H264.548V130.718Z" fill="#455A64"/>
<path d="M270.809 134.08H248.386V135.687H270.809V134.08Z" fill="#455A64"/>
<path d="M244.921 127.364H241.023V131.261H244.921V127.364Z" fill="#A6A6A6"/>
<path d="M175.551 216.009H77.6206V292.866H175.551V216.009Z" fill="#263238"/>
<path d="M161.488 222.71H91.6694V224.259H161.488V222.71Z" fill="#455A64"/>
<path d="M149.552 225.94H103.611V227.489H149.552V225.94Z" fill="#455A64"/>
<path d="M99.3468 282.252H95.4346V286.165H99.3468V282.252Z" fill="#FFCC41"/>
<path d="M144.935 282.252H102.07V283.412H144.935V282.252Z" fill="#455A64"/>
<path d="M129.764 285.012H102.07V286.172H129.764V285.012Z" fill="#455A64"/>
<path d="M92.8438 242.954C104.089 242.881 115.334 242.903 126.608 242.873C137.882 242.844 149.098 242.873 160.372 242.954C149.127 243.02 137.882 243.005 126.608 243.035C115.334 243.064 104.089 243.005 92.8438 242.954Z" fill="#455A64"/>
<path d="M92.8438 249.604C104.089 249.531 115.334 249.553 126.608 249.523C137.882 249.494 149.098 249.523 160.372 249.604C149.127 249.677 137.882 249.655 126.608 249.685C115.334 249.714 104.089 249.67 92.8438 249.604Z" fill="#455A64"/>
<path d="M92.8438 256.269C104.089 256.203 115.334 256.217 126.608 256.188C137.882 256.159 149.098 256.188 160.372 256.269C149.127 256.342 137.882 256.32 126.608 256.349C115.334 256.379 104.089 256.342 92.8438 256.269Z" fill="#455A64"/>
<path d="M92.8438 262.933C104.089 262.867 115.334 262.882 126.608 262.853C137.882 262.823 149.098 262.853 160.372 262.933C149.127 263.007 137.882 262.992 126.608 263.022C115.334 263.051 104.089 263.007 92.8438 262.933Z" fill="#455A64"/>
<path d="M92.8438 269.606C104.089 269.532 115.334 269.554 126.608 269.525C137.882 269.495 149.098 269.525 160.372 269.606C149.127 269.672 137.882 269.657 126.608 269.686C115.334 269.716 104.089 269.672 92.8438 269.606Z" fill="#455A64"/>
<path d="M106.43 238.601C106.533 244.833 106.504 251.079 106.548 257.289C106.592 263.499 106.548 269.767 106.43 275.977C106.327 269.745 106.357 263.499 106.313 257.289C106.269 251.079 106.335 244.833 106.43 238.601Z" fill="#455A64"/>
<path d="M118.1 238.601C118.196 244.833 118.174 251.079 118.211 257.289C118.247 263.499 118.211 269.767 118.1 275.977C117.998 269.745 118.02 263.499 117.983 257.289C117.946 251.079 117.998 244.833 118.1 238.601Z" fill="#455A64"/>
<path d="M129.764 238.601C129.867 244.833 129.837 251.079 129.882 257.289C129.926 263.499 129.882 269.767 129.764 275.977C129.669 269.745 129.691 263.499 129.654 257.289C129.617 251.079 129.669 244.833 129.764 238.601Z" fill="#455A64"/>
<path d="M141.434 238.601C141.53 244.833 141.508 251.079 141.545 257.289C141.581 263.499 141.545 269.767 141.434 275.977C141.332 269.745 141.361 263.499 141.317 257.289C141.273 251.079 141.332 244.833 141.434 238.601Z" fill="#455A64"/>
<path d="M153.098 238.601C153.2 244.833 153.171 251.079 153.215 257.289C153.259 263.499 153.215 269.767 153.098 275.977C153.002 269.745 153.024 263.499 152.987 257.289C152.951 251.079 153.002 244.833 153.098 238.601Z" fill="#455A64"/>
<path opacity="0.5" d="M94.5465 264.768C96.6017 264.768 97.8348 257.994 100.749 257.994C103.663 257.994 103.971 262.933 106.43 262.933C108.889 262.933 108.808 254.258 112.111 254.258C115.414 254.258 114.643 257.781 118.101 257.781C121.558 257.781 120.244 249.604 123.855 249.604C127.466 249.604 126.006 260.871 129.727 260.871C132.105 260.871 133.03 257.289 135.871 257.289C137.75 257.289 138.858 259.08 141.317 259.08C143.776 259.08 144.312 252.202 147.387 252.202C150.463 252.202 150.808 256.269 153.061 256.269C155.314 256.269 156.136 249.604 160.276 249.604V275.984H94.5098L94.5465 264.768Z" fill="#FFCC41"/>
<path d="M94.5464 265.091V264.446C95.1703 264.446 96.0144 262.86 96.653 261.708C97.7319 259.719 98.855 257.671 100.749 257.671C102.642 257.671 103.487 259.175 104.287 260.497C104.91 261.539 105.556 262.611 106.43 262.611C107.303 262.611 107.861 260.526 108.353 259.007C109.146 256.511 109.968 253.935 112.111 253.935C114.019 253.935 114.775 254.948 115.436 255.836C116.097 256.724 116.632 257.45 118.1 257.45C119.422 257.45 119.943 255.542 120.449 253.7C121.036 251.498 121.653 249.296 123.855 249.296C126.057 249.296 126.6 252.122 127.195 255.116C127.672 257.539 128.266 260.555 129.764 260.555C130.659 260.555 131.393 259.821 132.164 259.029C133.111 258.067 134.182 256.981 135.907 256.981C136.845 257.034 137.752 257.336 138.535 257.854C139.375 258.407 140.349 258.724 141.354 258.772C142.205 258.772 142.983 257.135 143.607 255.836C144.524 253.905 145.471 251.909 147.424 251.909C149.376 251.909 150.308 253.208 151.145 254.353C151.762 255.19 152.342 255.982 153.098 255.982C153.854 255.982 154.485 254.713 155.131 253.597C156.239 251.689 157.619 249.318 160.313 249.318V249.964C158.243 249.964 157.046 252.026 155.99 253.847C155.087 255.403 154.367 256.636 153.098 256.636C151.828 256.636 151.072 255.674 150.323 254.654C149.574 253.634 148.789 252.562 147.387 252.562C145.985 252.562 145.222 254.412 144.451 256.049C143.585 257.869 142.844 259.44 141.324 259.44C140.138 259.385 138.987 259.015 137.992 258.368C137.381 257.952 136.673 257.699 135.937 257.634C134.696 257.634 133.808 258.537 132.957 259.403C132.105 260.269 131.173 261.216 129.793 261.216C127.496 261.216 126.916 258.28 126.307 255.212C125.844 252.87 125.264 249.949 123.884 249.949C122.504 249.949 121.881 252.019 121.381 253.839C120.78 256.041 120.214 258.126 118.13 258.126C117.424 258.148 116.726 257.976 116.112 257.629C115.497 257.283 114.989 256.774 114.643 256.159C114.027 255.329 113.491 254.603 112.14 254.603C110.79 254.603 109.938 257.135 109.278 259.168C108.544 261.465 107.964 263.286 106.459 263.286C104.955 263.286 104.257 262.067 103.464 260.776C102.672 259.484 101.996 258.346 100.778 258.346C99.5596 258.346 98.4219 260.35 97.5484 261.957C96.5575 263.704 95.8015 265.091 94.5464 265.091Z" fill="#FFCC41"/>
<path d="M94.5464 239.005C94.6198 245.171 94.6858 251.329 94.6932 257.495L94.7592 275.984L94.5464 275.83L127.43 275.874H143.871L160.313 275.955L143.871 276.035H127.43L94.5464 276.079H94.3262V275.984L94.3996 257.502C94.4069 251.329 94.473 245.156 94.5464 239.005Z" fill="#455A64"/>
<path d="M289.945 216.009H179.625V292.866H289.945V216.009Z" fill="#263238"/>
<path d="M269.694 222.71H199.875V224.259H269.694V222.71Z" fill="#455A64"/>
<path d="M257.752 225.94H211.811V227.489H257.752V225.94Z" fill="#455A64"/>
<path d="M196.551 265.708H191.655V270.604H196.551V265.708Z" fill="#FFCC41"/>
<path d="M226.329 265.708H199.956V267.154H226.329V265.708Z" fill="#455A64"/>
<path d="M234.608 269.158H199.956V270.604H234.608V269.158Z" fill="#455A64"/>
<path d="M196.551 274.986H191.655V279.882H196.551V274.986Z" fill="#455A64"/>
<path d="M219.994 274.986H199.956V276.432H219.994V274.986Z" fill="#455A64"/>
<path d="M234.608 278.436H199.956V279.882H234.608V278.436Z" fill="#455A64"/>
<path d="M207.377 246.697C207.376 248.769 206.621 250.77 205.254 252.327C203.886 253.883 201.999 254.889 199.945 255.157C197.89 255.425 195.808 254.937 194.087 253.783C192.366 252.629 191.124 250.889 190.591 248.887C190.058 246.884 190.272 244.757 191.193 242.901C192.113 241.044 193.677 239.586 195.593 238.798C197.51 238.01 199.647 237.945 201.607 238.617C203.567 239.288 205.216 240.65 206.247 242.448C206.988 243.741 207.378 245.206 207.377 246.697Z" fill="#455A64"/>
<path d="M206.254 242.448L198.841 246.697V238.154C200.345 238.154 201.822 238.551 203.124 239.305C204.426 240.059 205.505 241.143 206.254 242.448Z" fill="#FFCC41"/>
<path d="M204.658 247.623C205.179 244.401 202.99 241.368 199.769 240.846C196.548 240.325 193.514 242.514 192.993 245.736C192.471 248.957 194.66 251.991 197.882 252.512C201.103 253.033 204.137 250.844 204.658 247.623Z" fill="white"/>
<path d="M201.3 245.384H196.382V246.081H201.3V245.384Z" fill="#263238"/>
<path d="M202.518 247.314H195.163V248.011H202.518V247.314Z" fill="#A6A6A6"/>
<path d="M231.276 246.697C231.278 247.115 231.246 247.533 231.181 247.945C230.852 250.115 229.696 252.072 227.954 253.407C226.212 254.741 224.021 255.348 221.84 255.1C219.66 254.852 217.661 253.768 216.263 252.077C214.866 250.386 214.178 248.218 214.345 246.03C214.513 243.842 215.522 241.805 217.161 240.345C218.799 238.886 220.94 238.119 223.132 238.206C225.325 238.292 227.398 239.225 228.917 240.809C230.436 242.392 231.282 244.503 231.276 246.697Z" fill="#455A64"/>
<path d="M231.276 246.697C231.278 247.115 231.246 247.533 231.181 247.945L222.732 246.697V238.154C223.855 238.153 224.966 238.373 226.003 238.802C227.04 239.231 227.982 239.86 228.776 240.654C229.569 241.447 230.199 242.39 230.628 243.427C231.057 244.464 231.277 245.575 231.276 246.697Z" fill="#FFCC41"/>
<path d="M228.495 248.075C229.243 244.898 227.273 241.717 224.097 240.97C220.92 240.223 217.739 242.192 216.992 245.368C216.245 248.545 218.214 251.726 221.39 252.473C224.567 253.221 227.748 251.251 228.495 248.075Z" fill="white"/>
<path d="M225.191 245.384H220.273V246.081H225.191V245.384Z" fill="#263238"/>
<path d="M226.41 247.314H219.055V248.011H226.41V247.314Z" fill="#A6A6A6"/>
<path d="M255.337 246.697C255.335 248.769 254.581 250.77 253.213 252.327C251.846 253.883 249.959 254.889 247.904 255.157C245.85 255.425 243.768 254.937 242.047 253.783C240.326 252.629 239.083 250.889 238.55 248.887C238.018 246.884 238.232 244.757 239.152 242.901C240.073 241.044 241.637 239.586 243.553 238.798C245.469 238.01 247.607 237.945 249.567 238.617C251.527 239.288 253.176 240.65 254.206 242.448C254.947 243.741 255.337 245.206 255.337 246.697Z" fill="#455A64"/>
<path d="M255.337 246.697C255.342 248.429 254.821 250.121 253.844 251.55C252.866 252.978 251.477 254.076 249.861 254.698L246.8 246.727V238.154C247.922 238.154 249.033 238.375 250.069 238.804C251.105 239.234 252.046 239.863 252.839 240.656C253.632 241.45 254.26 242.392 254.689 243.428C255.118 244.465 255.338 245.576 255.337 246.697Z" fill="#FFCC41"/>
<path d="M252.701 246.697C252.694 247.857 252.344 248.989 251.694 249.95C251.044 250.91 250.125 251.657 249.051 252.096C247.978 252.535 246.798 252.646 245.661 252.415C244.525 252.185 243.482 251.623 242.664 250.8C241.847 249.977 241.291 248.931 241.068 247.793C240.844 246.655 240.962 245.476 241.408 244.405C241.853 243.334 242.606 242.419 243.571 241.776C244.536 241.132 245.67 240.789 246.829 240.789C247.604 240.789 248.37 240.942 249.085 241.239C249.8 241.537 250.449 241.972 250.995 242.522C251.54 243.071 251.972 243.722 252.265 244.439C252.558 245.156 252.706 245.923 252.701 246.697Z" fill="white"/>
<path d="M249.259 245.384H244.341V246.081H249.259V245.384Z" fill="#263238"/>
<path d="M250.478 247.314H243.123V248.011H250.478V247.314Z" fill="#A6A6A6"/>
<path d="M279.272 246.697C279.271 248.769 278.516 250.77 277.149 252.327C275.781 253.883 273.894 254.889 271.84 255.157C269.785 255.425 267.703 254.937 265.982 253.783C264.261 252.629 263.019 250.889 262.486 248.887C261.953 246.884 262.167 244.757 263.088 242.901C264.008 241.044 265.572 239.586 267.489 238.798C269.405 238.01 271.542 237.945 273.502 238.617C275.462 239.288 277.111 240.65 278.142 242.448C278.884 243.741 279.273 245.206 279.272 246.697Z" fill="#455A64"/>
<path d="M279.272 246.697C279.278 248.332 278.815 249.934 277.938 251.313C277.061 252.692 275.806 253.79 274.323 254.478C272.841 255.166 271.192 255.414 269.572 255.192C267.953 254.971 266.431 254.29 265.187 253.23L270.729 246.734V238.154C271.851 238.153 272.962 238.373 273.999 238.802C275.036 239.231 275.979 239.86 276.772 240.654C277.566 241.447 278.195 242.39 278.624 243.427C279.053 244.464 279.273 245.575 279.272 246.697Z" fill="#FFCC41"/>
<path d="M276.54 247.705C277.105 244.491 274.957 241.428 271.743 240.864C268.528 240.299 265.465 242.447 264.901 245.661C264.336 248.876 266.484 251.939 269.699 252.503C272.913 253.067 275.976 250.919 276.54 247.705Z" fill="white"/>
<path d="M273.187 245.384H268.27V246.081H273.187V245.384Z" fill="#263238"/>
<path d="M274.406 247.314H267.051V248.011H274.406V247.314Z" fill="#A6A6A6"/>
<path d="M293.196 45.2805H73.811V51.3506H293.196V45.2805Z" fill="#A6A6A6"/>
<path d="M78.6333 48.3192C78.6333 48.6096 78.5472 48.8934 78.3859 49.1348C78.2246 49.3762 77.9953 49.5644 77.727 49.6755C77.4588 49.7866 77.1636 49.8157 76.8789 49.759C76.5941 49.7024 76.3325 49.5626 76.1272 49.3573C75.9219 49.152 75.7821 48.8904 75.7255 48.6056C75.6688 48.3209 75.6979 48.0257 75.809 47.7574C75.9201 47.4892 76.1083 47.2599 76.3497 47.0986C76.5911 46.9373 76.8749 46.8512 77.1653 46.8512C77.5517 46.8605 77.9197 47.0182 78.193 47.2915C78.4663 47.5648 78.624 47.9328 78.6333 48.3192Z" fill="#C7C7C7"/>
<path d="M84.7768 48.3192C84.7768 48.6096 84.6907 48.8934 84.5294 49.1348C84.3681 49.3762 84.1388 49.5644 83.8706 49.6755C83.6024 49.7866 83.3072 49.8157 83.0224 49.759C82.7377 49.7024 82.4761 49.5626 82.2708 49.3573C82.0655 49.152 81.9257 48.8904 81.869 48.6056C81.8124 48.3209 81.8415 48.0257 81.9526 47.7574C82.0637 47.4892 82.2518 47.2599 82.4932 47.0986C82.7347 46.9373 83.0185 46.8512 83.3088 46.8512C83.6952 46.8605 84.0632 47.0182 84.3365 47.2915C84.6098 47.5648 84.7675 47.9328 84.7768 48.3192Z" fill="white"/>
<path d="M90.9206 48.3192C90.9279 48.6183 90.8459 48.9127 90.685 49.165C90.5242 49.4172 90.2918 49.6157 90.0176 49.7353C89.7434 49.8548 89.4397 49.8899 89.1455 49.836C88.8512 49.7822 88.5797 49.6419 88.3656 49.433C88.1514 49.2241 88.0044 48.9561 87.9433 48.6632C87.8822 48.3704 87.9098 48.066 88.0225 47.7889C88.1353 47.5118 88.328 47.2746 88.5762 47.1076C88.8244 46.9406 89.1167 46.8513 89.4159 46.8512C89.8087 46.8511 90.1859 47.0046 90.4671 47.2789C90.7482 47.5532 90.911 47.9266 90.9206 48.3192Z" fill="#FFCC41"/>
<path d="M253.274 334.565C254.742 335.042 296.778 334.491 298.364 333.456C298.973 333.075 299.245 326.946 299.369 319.51V319.29C299.369 317.763 299.421 316.185 299.421 314.592C299.421 314.372 299.421 314.152 299.421 313.939L297.395 292.132L269.275 292.411L272.05 314.013L272.087 314.871L272.256 319.341V319.796C272.256 319.796 256.262 327.203 254.64 328.531C253.017 329.86 251.799 334.095 253.274 334.565Z" fill="#EB9481"/>
<path d="M253.274 334.565C254.742 335.042 296.778 334.491 298.364 333.456C298.973 333.075 299.244 326.946 299.369 319.51V319.29C299.369 317.763 299.421 316.185 299.421 314.592C299.421 314.372 299.421 314.152 299.421 313.939L272.042 314.013L272.079 314.871L272.248 319.341V319.796C272.248 319.796 256.254 327.203 254.632 328.531C253.01 329.86 251.799 334.095 253.274 334.565Z" fill="#EBEBEB"/>
<path d="M253.267 334.565C254.001 334.807 265.444 334.777 276.608 334.565C278.854 334.521 281.085 334.469 283.214 334.41C291.178 334.19 297.755 333.86 298.364 333.464C298.973 333.067 299.245 327.122 299.369 319.848C299.369 319.745 299.369 319.642 299.369 319.54V319.29L272.285 319.341V319.804C272.285 319.804 256.284 327.203 254.669 328.531C253.054 329.86 251.799 334.095 253.267 334.565Z" fill="#FFCC41"/>
<path d="M253.729 332.928C260.812 332.664 289.401 332.26 296.419 332.531C296.477 332.531 296.477 332.575 296.419 332.575C289.409 332.994 260.812 333.17 253.729 333.045C253.582 333.045 253.575 332.935 253.729 332.928Z" fill="#263238"/>
<path d="M269.238 319.459C272.02 318.908 275.433 319.29 277.591 321.25C277.672 321.323 277.591 321.441 277.474 321.411C274.798 320.588 272.042 320.052 269.253 319.811C269.206 319.813 269.161 319.796 269.126 319.765C269.092 319.733 269.071 319.689 269.069 319.642C269.068 319.596 269.084 319.55 269.116 319.516C269.148 319.481 269.192 319.461 269.238 319.459Z" fill="#263238"/>
<path d="M267.242 320.699C270.024 320.141 273.437 320.53 275.595 322.49C275.676 322.564 275.595 322.681 275.478 322.652C272.802 321.829 270.046 321.292 267.257 321.052C267.234 321.053 267.211 321.049 267.189 321.041C267.167 321.033 267.147 321.021 267.13 321.005C267.113 320.99 267.099 320.971 267.09 320.95C267.08 320.929 267.074 320.906 267.073 320.883C267.072 320.86 267.076 320.837 267.084 320.815C267.092 320.793 267.104 320.773 267.12 320.756C267.135 320.739 267.154 320.725 267.175 320.716C267.196 320.706 267.219 320.7 267.242 320.699Z" fill="#263238"/>
<path d="M265.246 321.94C268.027 321.382 271.441 321.771 273.599 323.723C273.679 323.804 273.599 323.922 273.481 323.892C270.806 323.066 268.05 322.529 265.26 322.292C265.214 322.294 265.168 322.277 265.134 322.246C265.099 322.214 265.079 322.17 265.077 322.123C265.075 322.077 265.092 322.031 265.123 321.997C265.155 321.962 265.199 321.942 265.246 321.94Z" fill="#263238"/>
<path d="M276.608 334.557C278.854 334.513 281.085 334.462 283.214 334.403C291.178 334.183 297.754 333.853 298.364 333.456C298.973 333.06 299.244 327.114 299.369 319.841C299.369 319.738 299.369 319.635 299.369 319.532V319.29C295.633 321.896 282.59 330.601 276.608 334.557Z" fill="#263238"/>
<path d="M270.413 319.437H300.676C300.676 319.437 294.583 248.745 294.804 247.505C295.112 245.919 296.895 238.763 299.274 229.419C300.008 226.483 300.822 223.356 301.659 220.105C303.92 211.297 306.401 201.696 308.573 193.328C311.825 180.799 314.365 171.066 314.365 171.066H288.726C288.726 171.066 285.739 180.542 281.966 192.873C275.83 212.911 267.624 240.495 266.816 247.189C265.502 258.038 270.413 319.437 270.413 319.437Z" fill="#455A64"/>
<path d="M271.749 314.277C276.373 314.181 275.044 314.145 279.669 314.093C281.929 314.093 296.8 313.946 298.914 314.299C298.926 314.299 298.937 314.303 298.945 314.312C298.953 314.32 298.958 314.331 298.958 314.343C298.958 314.355 298.953 314.366 298.945 314.374C298.937 314.382 298.926 314.387 298.914 314.387C296.8 314.739 281.929 314.607 279.669 314.585C275.044 314.541 276.373 314.504 271.749 314.409C271.74 314.409 271.731 314.407 271.723 314.404C271.715 314.401 271.708 314.396 271.702 314.39C271.696 314.383 271.691 314.376 271.688 314.368C271.684 314.36 271.683 314.352 271.683 314.343C271.683 314.334 271.684 314.326 271.688 314.318C271.691 314.31 271.696 314.302 271.702 314.296C271.708 314.29 271.715 314.285 271.723 314.282C271.731 314.278 271.74 314.277 271.749 314.277Z" fill="#263238"/>
<path d="M289.123 243.189C290.121 238.785 291.604 234.528 292.895 230.234C295.513 221.504 298.151 212.782 300.808 204.067C302.134 199.707 303.465 195.349 304.801 190.994C305.476 188.792 306.151 186.59 306.841 184.388C307.531 182.186 308.309 180.109 308.889 177.936C309.139 177.056 309.271 177.54 308.955 178.67C308.317 180.924 307.686 183.184 307.032 185.438C305.726 189.901 304.414 194.358 303.098 198.811C300.47 207.678 297.823 216.54 295.156 225.397L291.149 238.712C290.471 240.824 289.925 242.976 289.512 245.156C289.156 247.435 289.067 249.748 289.247 252.048C289.534 256.68 290.07 261.304 290.495 265.928C290.921 270.552 291.354 275.184 291.787 279.816C292.639 289.025 293.483 298.239 294.319 307.458C294.422 308.625 294.525 309.792 294.62 310.966C294.62 311.355 294.055 311.326 294.011 310.966C293.02 301.85 292.25 292.712 291.398 283.588L288.844 256.35C288.631 254.067 288.389 251.784 288.389 249.494C288.397 247.371 288.643 245.257 289.123 243.189Z" fill="#263238"/>
<path d="M291.64 171.073C293.416 184.851 296.815 210.709 299.288 229.426C305.072 206.716 314.379 171.073 314.379 171.073H291.64Z" fill="#263238"/>
<path d="M285.335 334.968C286.803 335.453 328.839 335.056 330.432 334.029C331.041 333.647 331.342 327.518 331.489 320.083V319.848C331.526 318.321 331.555 316.75 331.562 315.15C331.562 314.93 331.562 314.71 331.562 314.497C331.658 303.795 330.887 292.69 330.887 292.69L303.414 292.873L304.184 314.475V315.326L304.338 319.796V320.259C304.338 320.259 288.315 327.599 286.686 328.92C285.056 330.241 283.867 334.491 285.335 334.968Z" fill="#EB9481"/>
<path d="M285.335 334.968C286.803 335.453 328.839 335.056 330.432 334.029C331.041 333.647 331.342 327.518 331.489 320.083V319.848C331.526 318.321 331.555 316.75 331.562 315.15C331.562 314.93 331.562 314.71 331.562 314.497H304.184V315.348L304.338 319.818V320.281C304.338 320.281 288.315 327.621 286.686 328.942C285.056 330.263 283.867 334.491 285.335 334.968Z" fill="#EBEBEB"/>
<path d="M285.335 334.968C286.803 335.453 328.839 335.056 330.432 334.029C331.041 333.647 331.342 327.518 331.489 320.083V319.848L304.375 319.796V320.259C304.375 320.259 288.352 327.599 286.722 328.92C285.093 330.241 283.867 334.491 285.335 334.968Z" fill="#FFCC41"/>
<path d="M285.798 333.331C292.881 333.097 321.47 332.796 328.494 333.097C328.553 333.097 328.553 333.141 328.494 333.141C321.477 333.53 292.888 333.603 285.798 333.449C285.651 333.449 285.651 333.339 285.798 333.331Z" fill="#263238"/>
<path d="M301.358 319.929C304.14 319.378 307.553 319.774 309.704 321.742C309.785 321.815 309.704 321.932 309.587 321.91C306.916 321.072 304.162 320.525 301.373 320.281C301.326 320.283 301.281 320.266 301.246 320.234C301.212 320.203 301.192 320.159 301.19 320.112C301.188 320.065 301.204 320.02 301.236 319.985C301.268 319.951 301.312 319.931 301.358 319.929Z" fill="#263238"/>
<path d="M299.354 321.154C302.136 320.611 305.549 321.008 307.7 322.975C307.788 323.048 307.7 323.166 307.583 323.136C304.911 322.299 302.157 321.748 299.369 321.492C299.332 321.483 299.299 321.462 299.275 321.433C299.251 321.403 299.237 321.367 299.236 321.329C299.234 321.291 299.245 321.253 299.266 321.222C299.287 321.19 299.318 321.167 299.354 321.154Z" fill="#263238"/>
<path d="M297.351 322.388C300.14 321.844 303.553 322.241 305.704 324.208C305.784 324.281 305.704 324.399 305.586 324.369C302.911 323.537 300.155 322.991 297.365 322.74C297.319 322.742 297.273 322.725 297.239 322.693C297.204 322.662 297.184 322.618 297.182 322.571C297.18 322.524 297.197 322.479 297.228 322.444C297.26 322.41 297.304 322.389 297.351 322.388Z" fill="#263238"/>
<path d="M289.556 171.073C289.556 171.073 290.15 183.346 292.954 193.093C293.182 193.901 293.424 194.694 293.688 195.45C296.262 196.49 298.736 197.762 301.079 199.252C301.079 199.252 301.38 209.124 301.674 220.141C302.004 232.45 302.342 246.184 302.276 249.098C302.012 259.99 303.634 319.914 303.634 319.914L333.897 320.031C333.897 320.031 328.428 253.12 328.465 249.127C328.524 242.712 326.997 214.35 325.823 193.666C325.089 180.924 324.509 171.103 324.509 171.103L289.556 171.073Z" fill="#455A64"/>
<path d="M304.669 314.497C309.293 314.424 307.964 314.38 312.588 314.358C314.857 314.358 329.72 314.277 331.834 314.636C331.878 314.636 331.878 314.725 331.834 314.732C329.72 315.07 314.849 314.879 312.588 314.849C307.964 314.783 309.293 314.754 304.669 314.636C304.654 314.632 304.641 314.622 304.632 314.61C304.623 314.597 304.618 314.582 304.618 314.567C304.618 314.551 304.623 314.536 304.632 314.524C304.641 314.511 304.654 314.502 304.669 314.497Z" fill="#263238"/>
<path d="M321.969 175.426C322.527 192.308 323.114 209.19 323.87 226.072C324.626 242.954 325.647 259.939 327.063 276.828C327.856 286.267 328.605 299.545 329.625 308.955C329.625 309.021 329.529 309.043 329.522 308.955C327.32 292.213 326.094 271.521 325.008 254.639C323.922 237.757 323.188 220.875 322.615 204.03C322.292 194.488 322.043 184.946 321.756 175.404C321.756 175.309 321.962 175.323 321.969 175.426Z" fill="#263238"/>
<path d="M292.433 194.686C295.44 195.947 298.333 197.465 301.08 199.222C301.103 199.234 301.121 199.254 301.129 199.279C301.137 199.304 301.135 199.331 301.124 199.354C301.112 199.378 301.091 199.396 301.067 199.404C301.042 199.412 301.015 199.41 300.992 199.398C298.056 197.982 295.12 196.617 292.257 195.039C292.216 195.012 292.186 194.971 292.173 194.924C292.161 194.877 292.166 194.827 292.187 194.784C292.209 194.74 292.246 194.706 292.292 194.688C292.337 194.67 292.387 194.669 292.433 194.686Z" fill="#263238"/>
<path d="M292.264 184.278C292.462 185.35 292.719 186.414 292.954 187.486C293.189 188.557 293.336 189.511 293.6 190.502C293.817 191.462 294.304 192.341 295.002 193.035C295.398 193.402 295.831 193.725 296.25 194.055C296.477 194.238 296.719 194.415 296.984 194.598C296.984 194.451 296.932 194.312 296.903 194.165C296.829 193.754 296.763 193.35 296.697 192.939C296.543 192.029 296.396 191.126 296.257 190.216C295.985 188.432 295.736 186.627 295.361 184.865C295.361 184.792 295.457 184.762 295.471 184.865C295.919 186.612 296.411 188.344 296.8 190.113C296.984 190.979 297.666 195.251 297.696 195.56C297.725 195.868 297.754 196.184 297.762 196.499C297.806 196.816 297.806 197.137 297.762 197.453C297.762 197.534 297.651 197.519 297.615 197.453C297.484 197.156 297.393 196.842 297.343 196.521C297.262 196.213 297.196 195.905 297.138 195.596C297.138 195.486 297.138 195.369 297.086 195.251C296.668 195.002 296.272 194.664 295.883 194.378C295.494 194.092 295.024 193.769 294.62 193.431C293.879 192.803 293.345 191.967 293.086 191.031C292.828 190.023 292.661 188.993 292.587 187.955C292.447 186.744 292.352 185.526 292.176 184.285C292.132 184.234 292.249 184.234 292.264 184.278Z" fill="#263238"/>
<path d="M305.909 138.968C301.821 145.985 284.205 161.26 277.922 161.722C273.386 162.045 258.163 149.619 253.861 145.295C249.722 141.126 263.66 129.602 266.259 131.878C269.929 135.1 278.003 144.407 279.764 144.686C280.997 144.877 288.528 141.214 300.206 134.344C306.665 130.52 308.346 134.777 305.909 138.968Z" fill="#EB9481"/>
<path d="M244.965 136.363C246.793 139.805 253.289 145.376 255.373 146.117C257.458 146.859 267.294 136.128 266.912 133.889C266.53 131.65 259.469 120.545 255.814 118.974C252.159 117.403 243.064 132.795 244.965 136.363Z" fill="#EB9481"/>
<path d="M266.038 131.79C265.701 128.657 265.823 125.492 266.398 122.395C267.22 118.725 268.842 113.381 266.89 112.853C262.882 111.803 258.816 125.147 258.816 125.147C258.816 125.147 257.972 131.32 261.855 132.715C262.569 132.961 263.338 133.005 264.077 132.842C264.815 132.678 265.494 132.314 266.038 131.79Z" fill="#EB9481"/>
<path d="M260.944 122.519C259.843 124.266 258.471 123.253 258.471 123.253C258.471 123.253 261.407 125.969 260.475 128.046C259.542 130.124 256.768 128.362 256.562 128.244C256.717 128.391 259.366 130.953 258.207 132.942C257.047 134.931 254.478 132.839 254.316 132.7C254.419 132.876 255.74 135.32 254.515 136.634C252.415 138.887 248.855 132.751 246.441 132.23C246.441 132.23 245.046 136.26 244.973 136.37C244.973 136.37 241.464 130.601 242.382 127.349C242.506 126.869 242.794 126.446 243.196 126.155C243.597 125.863 244.088 125.719 244.584 125.749C244.584 125.749 243.248 124.009 244.114 122.409C244.554 121.594 246.264 121.572 246.264 121.572C245.983 121.165 245.819 120.687 245.792 120.192C245.765 119.697 245.875 119.205 246.11 118.769C246.785 117.668 248.393 117.822 248.393 117.822C248.393 117.822 240.502 111.509 241.912 109.608C244.341 106.342 258.926 120.427 260.702 120.17C261.546 120.031 261.429 121.763 260.944 122.519Z" fill="#EB9481"/>
<path d="M248.613 117.8C248.613 117.8 248.613 117.734 248.613 117.741C252.431 118.542 255.915 120.485 258.603 123.312C258.684 123.407 258.772 123.973 258.669 123.877C256.166 121.462 252.32 119.238 248.613 117.8Z" fill="#263238"/>
<path d="M246.191 121.521C246.147 121.521 246.191 121.44 246.191 121.455C250.387 122.381 254.112 124.782 256.687 128.222C256.775 128.34 256.731 128.538 256.621 128.406C254.786 126.153 249.56 122.806 246.191 121.521Z" fill="#263238"/>
<path d="M254.405 133.023C251.85 129.683 248.488 127.503 244.708 125.764C244.657 125.764 244.708 125.675 244.708 125.683C246.793 126.028 249.112 127.393 250.779 128.619C252.373 129.714 253.653 131.207 254.493 132.949C254.559 133.001 254.463 133.096 254.405 133.023Z" fill="#263238"/>
<path d="M258.537 123.261C258.64 123.371 258.177 123.4 258.273 123.518C259.3 124.758 261.04 127.07 260.218 128.142C259.557 128.993 257.95 128.7 257.377 128.347L255.909 127.452L256.951 128.788C257.418 129.381 257.788 130.045 258.045 130.755C258.178 131.077 258.243 131.424 258.236 131.772C258.228 132.121 258.148 132.464 258.001 132.781C257.856 133.068 257.616 133.298 257.323 133.432C257.029 133.565 256.699 133.594 256.386 133.515C255.683 133.33 255.041 132.966 254.522 132.458L253.054 131.114L254.015 132.861C254.285 133.349 254.49 133.87 254.625 134.41C254.775 134.915 254.775 135.454 254.625 135.959C254.544 136.182 254.403 136.378 254.218 136.525C254.033 136.673 253.81 136.766 253.575 136.796C253.038 136.781 252.516 136.612 252.07 136.311C251.104 135.668 250.186 134.954 249.325 134.175C248.877 133.794 248.43 133.441 247.96 133.052C247.511 132.666 246.986 132.378 246.418 132.208C246.966 132.432 247.465 132.761 247.886 133.177C248.32 133.573 248.738 133.984 249.156 134.395C249.98 135.253 250.882 136.032 251.85 136.722C252.368 137.102 252.985 137.324 253.626 137.361C253.979 137.34 254.318 137.218 254.602 137.008C254.886 136.798 255.103 136.51 255.226 136.179C255.439 135.561 255.46 134.893 255.285 134.263C255.147 133.66 254.93 133.078 254.639 132.531L254.111 132.935C254.721 133.546 255.48 133.986 256.313 134.212C256.776 134.326 257.266 134.271 257.693 134.058C258.111 133.844 258.452 133.505 258.669 133.089C258.858 132.69 258.961 132.255 258.97 131.814C258.979 131.372 258.894 130.934 258.72 130.527C258.435 129.75 258.018 129.027 257.487 128.391L257.091 128.832C257.825 129.257 259.594 129.786 260.761 128.589C262.038 126.813 259.102 123.782 258.537 123.261Z" fill="#263238"/>
<path d="M266.603 132.01L255.116 152.738C255.116 152.738 272.299 162.867 277.87 162.28C283.441 161.693 299.604 148.598 305.931 140.011C309.777 134.784 307.069 130.358 299.56 134.278C291.846 138.3 281.026 143.82 280.256 143.974C279.485 144.128 266.603 132.01 266.603 132.01Z" fill="#FFCC41"/>
<path d="M265.451 145.405C266.185 143.827 269.165 137.515 269.782 135.863C269.782 135.863 269.782 135.812 269.738 135.863C268.849 137.331 265.737 143.446 264.981 145.024C263.394 148.125 261.978 151.31 260.739 154.566C260.739 154.624 260.805 154.683 260.842 154.624C262.581 151.666 263.968 148.51 265.451 145.405Z" fill="#263238"/>
<path opacity="0.1" d="M305.909 140.047C300.771 147.006 289.181 156.929 282.018 160.761L303.994 132.869C307.957 132.509 308.86 136.04 305.909 140.047Z" fill="black"/>
<path d="M325.691 185.827C325.581 185.937 285.945 181.665 285.57 181.181C285.049 180.505 296.353 140.157 299.876 133.537C301.344 130.718 308.544 130.307 311.378 132.979C318.475 139.651 323.415 161.23 324.45 167.697C326.175 178.362 326.087 185.438 325.691 185.827Z" fill="white"/>
<path d="M300.646 132.333L290.928 188.117L283.441 184.234C283.441 184.234 295.853 143.181 296.653 140.333C297.453 137.486 299.142 133.397 300.646 132.333Z" fill="#FFCC41"/>
<path d="M309.014 131.18C308.522 130.975 308.089 153.2 308.038 156.87C307.987 160.54 307.62 189.416 307.62 189.416L327.063 186.891C327.063 186.891 325.661 160.856 318.703 145.156C314.805 136.267 312.684 132.7 309.014 131.18Z" fill="#FFCC41"/>
<path d="M299.604 134.256C299.34 136.26 298.87 140.913 302.041 140.862C303.329 140.719 304.549 140.209 305.557 139.394C306.6 138.656 307.56 137.807 308.42 136.862C309.44 135.849 310.375 134.754 311.216 133.588C311.216 133.537 311.326 133.588 311.29 133.647C310.453 134.821 309.748 136.062 308.801 137.155C307.899 138.227 306.857 139.172 305.704 139.966C304.63 140.798 303.33 141.284 301.975 141.361C301.375 141.359 300.794 141.145 300.337 140.757C299.879 140.369 299.572 139.832 299.472 139.24C299.145 137.589 299.19 135.887 299.604 134.256Z" fill="#263238"/>
<path d="M309.176 139.717C310.247 144.73 318.556 183.14 321.492 183.5C330.08 184.638 339.306 183.816 339.358 176.894C339.438 166.031 324.509 145.031 315.011 135.247C308.743 128.846 308.119 134.77 309.176 139.717Z" fill="#FFCC41"/>
<path d="M311.678 149.868C311.12 147.754 310.54 145.64 309.924 143.541C309.924 143.482 309.829 143.541 309.836 143.541C310.408 146.367 311.047 149.178 311.715 151.982C311.165 150.79 310.692 149.564 310.298 148.312C310.298 148.296 310.292 148.282 310.281 148.271C310.27 148.26 310.255 148.253 310.24 148.253C310.224 148.253 310.209 148.26 310.198 148.271C310.187 148.282 310.181 148.296 310.181 148.312C310.554 149.796 311.119 151.224 311.862 152.562L312.434 154.911C313.359 158.691 314.247 162.486 315.275 166.244C315.855 168.35 316.405 170.472 317.007 172.578C317.007 172.644 317.132 172.615 317.117 172.578C315.51 164.981 313.66 157.399 311.678 149.868Z" fill="#263238"/>
<path d="M310.381 141.588L300.235 176.017L326.68 183.81L336.826 149.381L310.381 141.588Z" fill="#455A64"/>
<path d="M330.5 145.625L317.972 141.916L316.847 145.717L329.375 149.425L330.5 145.625Z" fill="#A6A6A6"/>
<path d="M327.672 144.774L326.124 144.319L326.645 142.565L322.894 141.456L322.373 143.203L320.832 142.748L321.778 139.563L328.634 141.589L327.672 144.774Z" fill="#A6A6A6"/>
<path d="M305.491 154.742C305.091 155.164 304.829 155.698 304.741 156.272C304.653 156.847 304.743 157.435 304.999 157.957C304.036 158.171 303.179 158.717 302.577 159.498C301.579 160.922 303.37 163.117 303.37 163.117C302.416 163.547 301.615 164.256 301.072 165.15C300.25 166.618 301.747 169.077 301.747 169.077C301.092 169.957 300.774 171.043 300.852 172.138C301.175 175.074 305.219 176.997 307.774 178.259C310.328 179.522 318.784 180.689 320.347 181.078L328.568 164.739C328.568 164.739 318.71 155.836 315.495 154.779C312.787 153.89 307.076 153.186 305.491 154.742Z" fill="#EB9481"/>
<path d="M327.401 163.682C330.337 165.884 339.181 174.318 337.199 178.722C335.218 183.126 328.215 182.788 318.46 180.696L327.401 163.682Z" fill="#EB9481"/>
<path d="M327.401 163.682C330.337 165.884 339.629 174.105 337.398 179.749C335.622 184.241 327.394 184.887 317.646 182.817L327.401 163.682Z" fill="#FFCC41"/>
<path d="M322.644 182.92C325.58 175.654 329.749 168.468 330.388 167.161C330.391 167.155 330.396 167.149 330.401 167.145C330.407 167.14 330.413 167.137 330.42 167.135C330.427 167.133 330.434 167.132 330.441 167.133C330.448 167.134 330.455 167.136 330.461 167.139C330.468 167.143 330.473 167.147 330.478 167.153C330.482 167.158 330.485 167.164 330.488 167.171C330.49 167.178 330.49 167.185 330.49 167.192C330.489 167.199 330.487 167.206 330.483 167.213C329.786 168.46 325.903 177.202 322.747 182.986C322.71 183.052 322.615 182.994 322.644 182.92Z" fill="#263238"/>
<path d="M326.945 183.889C323.86 183.747 320.788 183.401 317.748 182.854C318.041 182.118 318.372 181.398 318.739 180.696C318.783 180.63 318.666 180.571 318.629 180.652C318.255 181.434 317.831 182.192 317.359 182.92C317.348 182.943 317.341 182.969 317.34 182.995C317.34 183.021 317.345 183.047 317.355 183.071C317.366 183.095 317.382 183.116 317.401 183.133C317.421 183.15 317.444 183.163 317.47 183.17C320.558 183.943 323.745 184.245 326.923 184.065C327.026 184.051 327.048 183.889 326.945 183.889Z" fill="#263238"/>
<path d="M327.79 163.843C328.822 164.581 329.803 165.388 330.726 166.258L331.416 166.948L331.709 167.132C332.128 167.396 332.539 167.675 332.928 167.976C333.681 168.57 334.394 169.212 335.064 169.899C335.108 169.943 335.064 170.016 334.983 169.972C334.275 169.317 333.517 168.718 332.715 168.181L332.399 167.976C332.781 168.394 333.133 168.813 333.508 169.253C334.45 170.42 335.318 171.646 336.106 172.923C336.143 172.982 336.047 173.033 336.011 172.974C334.543 170.721 328.972 165.018 327.621 164.027C326.777 163.41 327.269 163.44 327.79 163.843Z" fill="#263238"/>
<path d="M305.249 157.751C308.354 158.008 311.216 159.161 314.137 160.151C314.204 160.151 314.137 160.276 314.137 160.254C311.238 159.234 308.177 158.786 305.249 157.898C305.229 157.898 305.211 157.89 305.197 157.877C305.183 157.863 305.175 157.844 305.175 157.825C305.175 157.805 305.183 157.787 305.197 157.773C305.211 157.759 305.229 157.751 305.249 157.751Z" fill="#263238"/>
<path d="M303.531 162.948C304.231 163.075 304.912 163.292 305.557 163.594C306.254 163.873 306.951 164.159 307.641 164.46C309.026 165.062 310.394 165.698 311.744 166.368C311.803 166.368 311.744 166.501 311.708 166.471C310.328 165.877 308.941 165.297 307.539 164.761L305.425 163.968C304.744 163.765 304.087 163.489 303.465 163.146C303.446 163.132 303.433 163.113 303.426 163.091C303.419 163.069 303.419 163.045 303.427 163.023C303.434 163.001 303.448 162.982 303.467 162.969C303.485 162.955 303.508 162.948 303.531 162.948Z" fill="#263238"/>
<path d="M301.806 169.099C302.439 169.22 303.045 169.451 303.597 169.782L305.476 170.633C306.731 171.191 307.986 171.749 309.264 172.27C309.322 172.27 309.264 172.395 309.264 172.365C307.964 171.851 306.665 171.352 305.373 170.824L303.472 170.031C302.873 169.842 302.311 169.549 301.813 169.165C301.808 169.161 301.804 169.157 301.801 169.151C301.797 169.146 301.795 169.14 301.795 169.134C301.794 169.127 301.795 169.121 301.797 169.115C301.799 169.109 301.802 169.104 301.806 169.099Z" fill="#263238"/>
<path d="M302.048 138.726C304.302 139.1 308.361 135.144 309.689 132.296C309.522 130.758 309.277 129.229 308.955 127.716C308.72 126.248 308.493 124.611 308.397 123.099L299.076 126.035C299.739 127.888 300.173 129.816 300.368 131.775C300.39 131.982 300.39 132.192 300.368 132.399C300.368 132.399 300.368 132.465 300.368 132.509C300.206 133.661 299.868 138.33 302.048 138.726Z" fill="#EB9481"/>
<path d="M308.067 123.18C308.067 124.861 307.59 131.885 301.314 132.458C300.99 132.483 300.663 132.483 300.338 132.458C300.338 132.414 300.338 132.377 300.338 132.348C300.36 132.14 300.36 131.931 300.338 131.724C300.144 129.765 299.71 127.837 299.046 125.984L308.067 123.18Z" fill="#263238"/>
<path d="M310.159 113.528C310.937 116.963 308.442 126.534 305.895 128.516C302.225 131.393 296.507 131.276 294.151 126.916C291.868 122.688 295.34 110.276 298.151 108.507C302.298 105.909 309.014 108.456 310.159 113.528Z" fill="#EB9481"/>
<path d="M301.615 119.158C301.615 119.158 301.659 119.202 301.652 119.224C301.469 119.862 301.366 120.626 301.894 120.993C301.19 120.743 301.336 119.73 301.615 119.158Z" fill="#263238"/>
<path d="M302.364 118.629C303.421 118.813 302.973 120.919 301.989 120.743C301.006 120.567 301.476 118.475 302.364 118.629Z" fill="#263238"/>
<path d="M298.004 118.225C298.004 118.225 297.953 118.225 297.946 118.269C297.828 118.93 297.579 119.657 296.947 119.737C297.667 119.84 298.004 118.864 298.004 118.225Z" fill="#263238"/>
<path d="M297.556 117.44C296.529 117.139 295.993 119.224 296.947 119.503C297.901 119.781 298.422 117.675 297.556 117.44Z" fill="#263238"/>
<path d="M303.399 117.844C303.145 117.705 302.9 117.55 302.665 117.381C302.377 117.254 302.138 117.038 301.982 116.765C301.953 116.669 301.956 116.566 301.991 116.472C302.025 116.378 302.089 116.298 302.173 116.244C302.355 116.16 302.556 116.128 302.755 116.15C302.954 116.172 303.144 116.247 303.303 116.368C303.671 116.557 303.953 116.88 304.089 117.271C304.117 117.363 304.118 117.461 304.091 117.553C304.064 117.646 304.01 117.728 303.936 117.789C303.862 117.85 303.771 117.888 303.676 117.898C303.58 117.908 303.484 117.889 303.399 117.844Z" fill="#263238"/>
<path d="M296.969 116.192C297.263 116.196 297.557 116.181 297.85 116.148C298.157 116.188 298.469 116.126 298.738 115.972C298.809 115.902 298.856 115.81 298.872 115.711C298.888 115.612 298.872 115.511 298.826 115.422C298.706 115.261 298.546 115.136 298.361 115.058C298.176 114.981 297.975 114.954 297.776 114.981C297.365 114.973 296.965 115.117 296.653 115.385C296.596 115.452 296.557 115.535 296.542 115.622C296.528 115.71 296.537 115.8 296.569 115.883C296.602 115.966 296.656 116.038 296.726 116.093C296.797 116.147 296.881 116.182 296.969 116.192Z" fill="#263238"/>
<path d="M300.94 125.096C300.749 125.213 300.551 125.389 300.309 125.36C300.069 125.302 299.844 125.194 299.648 125.044C299.648 125.044 299.604 125.044 299.612 125.044C299.675 125.19 299.777 125.316 299.906 125.409C300.035 125.502 300.187 125.558 300.346 125.573C300.485 125.564 300.619 125.516 300.732 125.435C300.845 125.353 300.933 125.24 300.984 125.11C301.021 125.103 300.977 125.081 300.94 125.096Z" fill="#263238"/>
<path d="M300.683 123.004C300.461 123.225 300.196 123.399 299.905 123.514C299.613 123.629 299.301 123.682 298.988 123.672C298.715 123.665 298.446 123.618 298.188 123.532L298.033 123.488L297.901 123.429C297.868 123.417 297.84 123.393 297.821 123.363C297.802 123.332 297.795 123.296 297.799 123.261V123.195V123.136C297.894 122.629 298.107 121.881 298.107 121.881C297.901 121.932 296.874 122.152 296.947 121.881C297.491 119.631 298.261 117.443 299.245 115.348C299.245 115.282 299.384 115.348 299.362 115.392C298.87 117.477 298.019 119.451 297.498 121.536C297.861 121.452 298.234 121.42 298.606 121.44C298.679 121.44 298.173 122.908 298.151 123.114C298.552 123.243 298.975 123.289 299.395 123.252C299.815 123.214 300.223 123.092 300.595 122.894C300.691 122.901 300.735 122.96 300.683 123.004Z" fill="#263238"/>
<path d="M298.533 123.312C298.731 123.73 299.034 124.089 299.414 124.354C299.629 124.5 299.888 124.57 300.148 124.552C300.698 124.552 300.808 124.053 300.801 123.628C300.793 123.4 300.761 123.173 300.705 122.952C300.039 123.304 299.277 123.431 298.533 123.312Z" fill="#263238"/>
<path d="M299.413 124.384C299.629 124.529 299.887 124.599 300.147 124.582C300.698 124.582 300.808 124.083 300.8 123.657C300.521 123.602 300.231 123.643 299.979 123.776C299.726 123.908 299.527 124.122 299.413 124.384Z" fill="#FF98B9"/>
<path d="M306.966 118.343C306.372 116.442 307.539 113.308 306.621 112.471C304.625 110.584 300.36 113.983 297.498 113.939C294.635 113.895 293.828 112.067 294.4 109.828C294.973 107.59 296.91 106.122 300.045 105.74C302.774 105.503 305.5 106.227 307.752 107.788C307.752 107.788 307.084 106.643 307.355 106.32C307.627 105.997 308.955 107.098 309.359 107.568C309.654 107.978 309.872 108.438 310.005 108.926C310.421 108.832 310.849 108.8 311.275 108.83C311.892 108.89 312.469 109.166 312.904 109.608C312.948 109.777 311.935 109.88 311.223 109.894C311.223 109.894 312.501 111.685 312.434 113.183C312.368 114.68 309.843 121.756 309.278 121.822C308.552 121.844 307.201 119.114 306.966 118.343Z" fill="#263238"/>
<path d="M310.959 109.645C310.959 109.645 310.9 109.645 310.959 109.689C311.642 110.259 312.151 111.009 312.427 111.854C312.682 112.871 312.664 113.937 312.376 114.944C311.776 116.865 310.977 118.718 309.99 120.471C309.99 120.523 310.049 120.567 310.078 120.515C311.241 118.68 312.111 116.674 312.655 114.57C312.97 112.779 312.611 110.695 310.959 109.645Z" fill="#263238"/>
<path d="M306.746 111.715C305.906 111.589 305.049 111.621 304.221 111.81C303.449 112.057 302.709 112.398 302.019 112.823C300.459 113.721 298.679 114.163 296.881 114.1C296.881 114.1 296.881 114.1 296.881 114.137C298.535 114.314 300.205 114 301.681 113.234C302.414 112.815 303.171 112.44 303.949 112.111C304.864 111.878 305.811 111.794 306.753 111.862C306.763 111.861 306.772 111.859 306.781 111.855C306.79 111.85 306.798 111.845 306.804 111.838C306.81 111.83 306.815 111.822 306.819 111.813C306.822 111.804 306.823 111.794 306.823 111.785C306.822 111.775 306.82 111.765 306.816 111.757C306.812 111.748 306.806 111.74 306.799 111.734C306.792 111.727 306.783 111.722 306.774 111.719C306.765 111.716 306.755 111.714 306.746 111.715Z" fill="#263238"/>
<path d="M306.078 106.914C304.967 106.327 303.778 105.9 302.547 105.645C301.372 105.366 300.158 105.292 298.958 105.424C297.922 105.513 296.936 105.91 296.127 106.564C295.319 107.218 294.725 108.099 294.422 109.094C294.13 110.173 294.251 111.322 294.76 112.317C294.768 112.327 294.78 112.335 294.793 112.337C294.806 112.34 294.82 112.339 294.832 112.333C294.844 112.327 294.853 112.317 294.859 112.304C294.865 112.292 294.866 112.278 294.862 112.265C294.451 111.351 294.346 110.329 294.563 109.35C294.78 108.371 295.307 107.489 296.066 106.834C297.791 105.417 300.162 105.366 302.261 105.755C303.569 106.023 304.846 106.427 306.07 106.958C306.07 106.958 306.078 106.922 306.078 106.914Z" fill="#263238"/>
<path d="M307.502 121.279C307.502 121.279 309.983 118.343 311.333 119.275C312.684 120.207 310.599 124.567 308.874 125.037C308.656 125.113 308.424 125.144 308.193 125.128C307.962 125.112 307.737 125.049 307.531 124.943C307.326 124.837 307.143 124.691 306.996 124.513C306.848 124.335 306.738 124.128 306.672 123.907L307.502 121.279Z" fill="#EB9481"/>
<path d="M300.301 132.304L302.613 137.875L309.491 130.718L311.488 132.964C311.488 132.964 304.808 144.297 304.764 143.791L302.408 138.99L299.112 142.396L299.281 133.97L300.301 132.304Z" fill="white"/>
<path d="M298.958 138.212C299.032 136.818 299.076 135.416 299.215 134.036C299.215 133.984 299.296 133.962 299.303 134.036C299.597 135.372 299.303 140.686 299.303 141.963C299.443 141.816 302.357 138.976 302.386 139.027C302.893 139.761 304.632 143.277 304.75 143.6C305.807 141.801 309.888 135.254 311.106 133.551C311.114 133.543 311.124 133.538 311.134 133.536C311.145 133.534 311.157 133.536 311.166 133.541C311.176 133.545 311.184 133.553 311.189 133.563C311.194 133.573 311.196 133.584 311.194 133.595C310.262 135.496 304.904 144.304 304.823 144.282C303.912 142.635 303.086 140.943 302.349 139.21C301.858 139.827 298.922 143.035 298.907 142.822C298.846 141.285 298.863 139.747 298.958 138.212Z" fill="#263238"/>
</svg>
