<svg width="56" height="56" viewBox="0 0 56 56" fill="none" xmlns="http://www.w3.org/2000/svg">
<g filter="url(#filter0_d_1167_159)">
<rect x="6" y="4" width="40" height="40" rx="8" fill="#0084c8" shape-rendering="crispEdges"/>
<path fill-rule="evenodd" clip-rule="evenodd" d="M28.6341 10.667C28.6914 10.667 28.7475 10.6718 28.8021 10.6811L28.9846 10.6822C29.2566 10.6822 29.5166 10.7929 29.706 10.9889L36.4593 18.0249C36.638 18.2102 36.7381 18.4595 36.7381 18.7169V30.9382C36.762 34.2835 34.1566 37.0169 30.806 37.1529L20.114 37.1542H19.9686C16.702 37.0804 14.0822 34.4385 14.0024 31.2038L14.002 16.6542C14.0793 13.3462 16.8113 10.6822 20.0953 10.6822L28.466 10.6811C28.5207 10.6718 28.5768 10.667 28.6341 10.667ZM27.634 12.6817L20.098 12.6822C17.8886 12.6822 16.054 14.4715 16.002 16.6782V30.9382C15.9526 33.2222 17.7526 35.1035 20.014 35.1542H30.766C32.9913 35.0622 34.754 33.2129 34.7381 30.9462L34.738 19.9777L32.0581 19.979C29.6181 19.9723 27.6341 17.983 27.6341 15.5457L27.634 12.6817ZM28.385 27.4778C28.937 27.4778 29.385 27.9258 29.385 28.4778C29.385 29.0298 28.937 29.4778 28.385 29.4778H21.185C20.633 29.4778 20.185 29.0298 20.185 28.4778C20.185 27.9258 20.633 27.4778 21.185 27.4778H28.385ZM25.6585 22.4751C26.2105 22.4751 26.6585 22.9231 26.6585 23.4751C26.6585 24.0271 26.2105 24.4751 25.6585 24.4751H21.1838C20.6318 24.4751 20.1838 24.0271 20.1838 23.4751C20.1838 22.9231 20.6318 22.4751 21.1838 22.4751H25.6585ZM29.634 13.803L29.6341 15.5457C29.6341 16.8843 30.7234 17.975 32.0608 17.979L33.642 17.9777L29.634 13.803Z" fill="#FFFFFF"/>
</g>
<defs>
<filter id="filter0_d_1167_159" x="0" y="0" width="56" height="56" filterUnits="userSpaceOnUse" color-interpolation-filters="sRGB">
<feFlood flood-opacity="0" result="BackgroundImageFix"/>
<feColorMatrix type="matrix" values="0 0 0 0 0  0 0 0 0 0.518  0 0 0 0 0.784  0 0 0 0.2 0"/>
<feOffset dx="2" dy="4"/>
<feGaussianBlur stdDeviation="4"/>
<feComposite in2="hardAlpha" operator="out"/>
<feColorMatrix type="matrix" values="0 0 0 0 1 0 0 0 0 0.8 0 0 0 0 0.254902 0 0 0 0.2 0"/>
<feBlend mode="normal" in2="BackgroundImageFix" result="effect1_dropShadow_1167_159"/>
<feBlend mode="normal" in="SourceGraphic" in2="effect1_dropShadow_1167_159" result="shape"/>
</filter>
</defs>
</svg>
