<svg xmlns="http://www.w3.org/2000/svg" fill="none" viewBox="6 4 56 56">
<g filter="url(#filter0_d_1447_764)">
<rect x="6" y="4" width="56" height="56" rx="16" fill="#FFCC41" shape-rendering="crispEdges"/>
<path fill-rule="evenodd" clip-rule="evenodd" d="M33.9548 32.2333H33.9982C38.2265 32.2333 41.6665 28.795 41.6665 24.5683C41.6665 20.3399 38.2265 16.9016 33.9982 16.9016C29.7716 16.9016 26.3316 20.3399 26.3316 24.5649C26.3216 28.78 29.7382 32.22 33.9548 32.2333ZM28.8316 24.5683C28.8316 21.7199 31.1498 19.4016 33.9982 19.4016C36.8482 19.4016 39.1665 21.7199 39.1665 24.5683C39.1665 27.4166 36.8482 29.7333 33.9982 29.7333H33.9582C31.1232 29.7233 28.8249 27.4083 28.8316 24.5683Z" fill="white"/>
<path fill-rule="evenodd" clip-rule="evenodd" d="M22.7386 41.7619C22.7386 47.0986 31.2137 47.0986 33.9987 47.0986C36.7837 47.0986 45.2587 47.0986 45.2587 41.7336C45.2587 37.6886 40.2087 34.3953 33.9987 34.3953C27.7886 34.3953 22.7386 37.6986 22.7386 41.7619ZM25.2386 41.7619C25.2386 39.4653 28.9853 36.8953 33.9987 36.8953C39.012 36.8953 42.7587 39.4503 42.7587 41.7336C42.7587 44.1019 37.9937 44.5986 33.9987 44.5986C30.0036 44.5986 25.2386 44.1069 25.2386 41.7619Z" fill="white"/>
<path d="M44.6495 30.4709C44.0962 30.4709 43.5912 30.1026 43.4412 29.5442C43.2628 28.8776 43.6595 28.1925 44.3262 28.0125C45.8878 27.5942 46.9795 26.1708 46.9795 24.5508C46.9795 22.8558 45.7795 21.3792 44.1228 21.0425C43.4462 20.9042 43.0112 20.2425 43.1478 19.5658C43.2878 18.8908 43.9445 18.4642 44.6228 18.5908C47.4378 19.1658 49.4795 21.6725 49.4795 24.5508C49.4795 27.3008 47.6262 29.7176 44.9728 30.4292C44.8645 30.4576 44.7545 30.4709 44.6495 30.4709Z" fill="white"/>
<path d="M47.652 40.9985C47.7887 41.5751 48.3003 41.9618 48.867 41.9618C48.9637 41.9618 49.0587 41.9501 49.1553 41.9285C50.9403 41.5085 52.2887 39.9168 52.2887 38.2285C52.2887 35.6101 49.1103 33.2268 45.6187 33.2268C44.9287 33.2268 44.3687 33.7868 44.3687 34.4768C44.3687 35.1668 44.9287 35.7268 45.6187 35.7268C48.0687 35.7268 49.7887 37.3485 49.7887 38.2285C49.7887 38.6401 49.3703 39.3101 48.582 39.4951C47.9103 39.6535 47.4937 40.3268 47.652 40.9985Z" fill="white"/>
<path d="M23.3524 30.4709C23.2474 30.4709 23.1374 30.4576 23.0307 30.4292C20.374 29.7192 18.519 27.3025 18.519 24.5508C18.519 21.6725 20.5624 19.1658 23.3774 18.5908C24.0557 18.4642 24.714 18.8908 24.8524 19.5658C24.989 20.2425 24.554 20.9042 23.8774 21.0425C22.2207 21.3792 21.019 22.8558 21.019 24.5508C21.019 26.1708 22.1107 27.5942 23.674 28.0125C24.3424 28.1925 24.7374 28.8776 24.5607 29.5426C24.4107 30.1026 23.9057 30.4709 23.3524 30.4709Z" fill="white"/>
<path d="M18.8448 41.9285C18.9414 41.9518 19.0364 41.9618 19.1331 41.9618C19.6998 41.9618 20.2114 41.5751 20.3481 40.9985C20.5064 40.3268 20.0898 39.6518 19.4181 39.4951C18.6298 39.3101 18.2114 38.6401 18.2114 38.2285C18.2114 37.3485 19.9314 35.7268 22.3814 35.7268C23.0714 35.7268 23.6314 35.1668 23.6314 34.4768C23.6314 33.7868 23.0714 33.2268 22.3814 33.2268C18.8898 33.2268 15.7114 35.6101 15.7114 38.2285C15.7114 39.9168 17.0598 41.5101 18.8448 41.9285Z" fill="white"/>
</g>
<defs>
<filter id="filter0_d_1447_764" x="0" y="0" width="72" height="72" filterUnits="userSpaceOnUse" color-interpolation-filters="sRGB">
<feFlood flood-opacity="0" result="BackgroundImageFix"/>
<feColorMatrix in="SourceAlpha" type="matrix" values="0 0 0 0 0 0 0 0 0 0 0 0 0 0 0 0 0 0 127 0" result="hardAlpha"/>
<feOffset dx="2" dy="4"/>
<feGaussianBlur stdDeviation="4"/>
<feComposite in2="hardAlpha" operator="out"/>
<feColorMatrix type="matrix" values="0 0 0 0 1 0 0 0 0 0.8 0 0 0 0 0.254902 0 0 0 0.2 0"/>
<feBlend mode="normal" in2="BackgroundImageFix" result="effect1_dropShadow_1447_764"/>
<feBlend mode="normal" in="SourceGraphic" in2="effect1_dropShadow_1447_764" result="shape"/>
</filter>
</defs>
</svg>