<svg xmlns="http://www.w3.org/2000/svg" fill="none" viewBox="6 4 56 56">
<g filter="url(#filter0_d_1451_1340)">
<rect x="6" y="4" width="56" height="56" rx="16" fill="#FFCC41" shape-rendering="crispEdges"/>
<path fill-rule="evenodd" clip-rule="evenodd" d="M28.0088 37.7498C28.0088 37.0594 28.5684 36.4998 29.2588 36.4998H38.2588C38.9492 36.4998 39.5088 37.0594 39.5088 37.7498C39.5088 38.4401 38.9492 38.9998 38.2588 38.9998H29.2588C28.5684 38.9998 28.0088 38.4401 28.0088 37.7498Z" fill="white"/>
<path fill-rule="evenodd" clip-rule="evenodd" d="M28.0074 31.0642C28.0074 30.3739 28.567 29.8142 29.2574 29.8142H34.8507C35.541 29.8142 36.1007 30.3739 36.1007 31.0642C36.1007 31.7545 35.541 32.3142 34.8507 32.3142H29.2574C28.567 32.3142 28.0074 31.7545 28.0074 31.0642Z" fill="white"/>
<path fill-rule="evenodd" clip-rule="evenodd" d="M22.634 19.1207C25.1871 16.3048 29.1469 15.3333 34.483 15.3333C36.0275 15.3333 37.4522 15.419 38.736 15.5948C38.996 15.6304 39.2383 15.747 39.4283 15.9281L48.8783 24.9281C49.0703 25.1109 49.1992 25.3499 49.2463 25.6107C49.5803 27.4562 49.733 29.5851 49.733 31.9999C49.733 37.8329 48.8685 42.1087 46.3458 44.8862C43.79 47.6999 39.8257 48.6666 34.483 48.6666C29.1481 48.6666 25.1879 47.6997 22.6344 44.8857C20.1142 42.1086 19.2496 37.8331 19.2496 31.9999C19.2496 26.1746 20.1144 21.8998 22.634 19.1207ZM24.4861 20.7999C22.6349 22.8417 21.7496 26.2752 21.7496 31.9999C21.7496 37.7334 22.6351 41.1664 24.4857 43.2057C26.3031 45.2084 29.3345 46.1666 34.483 46.1666C39.6402 46.1666 42.6758 45.2082 44.4952 43.2052C46.3475 41.1661 47.233 37.7336 47.233 31.9999C47.233 29.8641 47.108 28.023 46.8542 26.4527L38.0012 18.0213C36.9498 17.897 35.7742 17.8333 34.483 17.8333C29.3357 17.8333 26.3039 18.795 24.4861 20.7999Z" fill="white"/>
<path fill-rule="evenodd" clip-rule="evenodd" d="M37.6403 15.4709C38.3307 15.4709 38.8903 16.0306 38.8903 16.7209V21.1559C38.8903 23.5618 40.8402 25.5109 43.247 25.5109H48.1653C48.8557 25.5109 49.4153 26.0706 49.4153 26.7609C49.4153 27.4513 48.8557 28.0109 48.1653 28.0109H43.247C39.4605 28.0109 36.3903 24.9435 36.3903 21.1559V16.7209C36.3903 16.0306 36.95 15.4709 37.6403 15.4709Z" fill="white"/>
</g>
<defs>
<filter id="filter0_d_1451_1340" x="0" y="0" width="72" height="72" filterUnits="userSpaceOnUse" color-interpolation-filters="sRGB">
<feFlood flood-opacity="0" result="BackgroundImageFix"/>
<feColorMatrix in="SourceAlpha" type="matrix" values="0 0 0 0 0 0 0 0 0 0 0 0 0 0 0 0 0 0 127 0" result="hardAlpha"/>
<feOffset dx="2" dy="4"/>
<feGaussianBlur stdDeviation="4"/>
<feComposite in2="hardAlpha" operator="out"/>
<feColorMatrix type="matrix" values="0 0 0 0 1 0 0 0 0 0.8 0 0 0 0 0.254902 0 0 0 0.2 0"/>
<feBlend mode="normal" in2="BackgroundImageFix" result="effect1_dropShadow_1451_1340"/>
<feBlend mode="normal" in="SourceGraphic" in2="effect1_dropShadow_1451_1340" result="shape"/>
</filter>
</defs>
</svg>